<?xml version="1.0" encoding="UTF-8"?>
<svg width="573px" height="154px" viewBox="0 0 573 154" version="1.1" xmlns="http://www.w3.org/2000/svg" xmlns:xlink="http://www.w3.org/1999/xlink">
    <!-- Generator: Sketch 47.1 (45422) - http://www.bohemiancoding.com/sketch -->
    <title>Group 2</title>
    <desc>Created with Sketch.</desc>
    <defs>
        <linearGradient x1="47.8142678%" y1="-139.569862%" x2="50%" y2="50%" id="linearGradient-1">
            <stop stop-color="#FFFFFF" offset="0%"></stop>
            <stop stop-color="#3D5AFE" offset="100%"></stop>
        </linearGradient>
    </defs>
    <g id="Page-1" stroke="none" stroke-width="1" fill="none" fill-rule="evenodd">
        <g id="Group-3" transform="translate(-578.000000, -504.000000)" fill="url(#linearGradient-1)">
            <g id="Group" transform="translate(273.000000, 147.000000)">
                <g id="Group-2" transform="translate(305.000000, 357.000000)">
                    <path d="M386.137902,33 L311.386,129.888 C310.725997,130.548003 310.330001,131.174997 310.198,131.769 C310.065999,132.363003 310,132.923997 310,133.452 L310,142.362 C310,143.682007 310.461995,144.770996 311.386,145.629 C312.310005,146.487004 313.431993,146.916 314.752,146.916 L417.316,146.916 C418.636007,146.916 419.724996,146.454005 420.583,145.53 C421.441004,144.605995 421.87,143.550006 421.87,142.362 L421.87,134.442 C421.87,132.857992 421.441004,131.670004 420.583,130.878 C419.724996,130.085996 418.636007,129.69 417.316,129.69 L334.156,129.69 L408.285,33 L386.137902,33 Z M394.844625,17.226 L316.93,17.226 C313.761984,17.226 312.178,15.7080152 312.178,12.672 L312.178,4.356 C312.178,1.45198548 313.761984,0 316.93,0 L416.92,0 C418.240007,0 419.361995,0.39599604 420.286,1.188 C421.210005,1.98000396 421.672,3.10199274 421.672,4.554 L421.672,13.662 C421.672,14.9820066 421.342003,16.037996 420.682,16.83 L420.551667,17 L395,17 L394.844625,17.226 Z M168,141 L168,6 L222,6 L222,6 C256.793939,6 285,34.2060608 285,69 L285,142 C285,146.418278 281.418278,150 277,150 C272.581722,150 269,146.418278 269,142 L269,72 L269,72 C269,45.490332 247.509668,24 221,24 L186,24 L186,141 L186,141 C186,145.970563 181.970563,150 177,150 C172.029437,150 168,145.970563 168,141 L168,141 Z M456,12 C456,7.02943725 460.029437,3 465,3 C469.970563,3 474,7.02943725 474,12 L474,89 C474,111.09139 491.90861,129 514,129 L518,129 C540.09139,129 558,111.09139 558,89 L558,10.5 C558,6.35786438 561.357864,3 565.5,3 C569.642136,3 573,6.35786438 573,10.5 L573,88.5 C573,120.808658 546.808658,147 514.5,147 C482.191342,147 456,120.808658 456,88.5 L456,12 Z M71.6515862,23.0789217 L15.8872697,148.333148 C14.4574154,151.838991 11.7565796,153.910626 7.78476214,153.910626 C3.65407202,153.910626 0,150.404783 0,146.102157 C0,144.667948 0.317745393,143.233739 1.11210888,141.480817 L60.6893701,10.3304 C62.7547152,5.70906087 65.9321691,3 71.1749681,3 L71.8104589,3 C76.7355125,3 80.2307118,5.86841739 81.9783115,10.3304 L141.555573,141.162104 C142.191064,142.596313 142.667682,144.030522 142.667682,145.305374 C142.667682,149.926713 139.172482,153.432557 134.565174,153.432557 C130.752229,153.432557 127.892521,150.564139 126.462667,147.377009 L71.6515862,23.0789217 L71.6515862,23.0789217 Z" id="Combined-Shape"></path>
                </g>
            </g>
        </g>
    </g>
</svg>