<?xml version="1.0" encoding="UTF-8"?>
<svg width="175px" height="147px" viewBox="0 0 175 147" version="1.1" xmlns="http://www.w3.org/2000/svg" xmlns:xlink="http://www.w3.org/1999/xlink">
    <!-- Generator: Sketch 43.2 (39069) - http://www.bohemiancoding.com/sketch -->
    <title>Group 19</title>
    <desc>Created with Sketch.</desc>
    <defs>
        <rect id="path-1" x="1.51208791" y="0" width="36.2901099" height="103.653846" rx="2.268"></rect>
        <rect id="path-2" x="2.64615385" y="13.5200669" width="10.2065934" height="4.50668896" rx="2.25334448"></rect>
        <rect id="path-3" x="2.64615385" y="49.5735786" width="10.2065934" height="4.50668896" rx="2.25334448"></rect>
        <rect id="path-4" x="2.64615385" y="85.6270903" width="10.2065934" height="4.50668896" rx="2.25334448"></rect>
        <rect id="path-5" x="2.64615385" y="31.5468227" width="14.7428571" height="4.50668896" rx="2.25334448"></rect>
        <rect id="path-6" x="2.64615385" y="67.6003344" width="14.7428571" height="4.50668896" rx="2.25334448"></rect>
    </defs>
    <g id="Assets" stroke="none" stroke-width="1" fill="none" fill-rule="evenodd">
        <g id="Group-19" transform="translate(3.000000, 0.000000)">
            <ellipse id="Oval-5" fill="#F3F6F9" cx="90.7252747" cy="73.5" rx="73.7142857" ry="73.5"></ellipse>
            <g id="Group-10" transform="translate(0.000000, 28.269231)">
                <g id="Group-4" transform="translate(0.000000, 16.961538)" stroke="#6B7C93" stroke-width="4.29974993" stroke-linecap="round" stroke-linejoin="round">
                    <path d="M38.882131,7.53846154 C20.5577424,14.4812032 7.56043956,31.7932276 7.56043956,52.0990902 L7.56043956,59.6538534 C7.56043956,59.6538534 23.0777881,69.7307692 56.7032967,69.7307692 C90.3288053,69.7307692 105.846154,59.6538534 105.846154,59.6538534 L105.846154,52.0990902 C105.846154,31.7971259 92.8567138,14.4851014 74.5323253,7.54235977" id="Stroke-1277" fill="#FFFFFF"></path>
                    <polyline id="Stroke-1270" points="51.032967 3.76923077 39.6923077 3.76923077 41.53034 33.9230769"></polyline>
                    <path d="M51.032967,47.1153846 L51.032967,5.88942308 C51.032967,2.63846154 53.5694945,0 56.7032967,0 C59.8370989,0 62.3736264,2.63846154 62.3736264,5.88942308 L62.3736264,47.1153846" id="Stroke-1271"></path>
                    <polyline id="Stroke-1273" points="62.3736264 3.76923077 73.7142857 3.76923077 71.8762534 33.9230769"></polyline>
                    <path d="M7.82114437,54.6538462 C2.85862827,56.4717776 0,58.5913745 0,60.8578349 C0,67.629431 25.3874346,82.9230769 56.7032967,82.9230769 C88.0191588,82.9230769 113.406593,67.629431 113.406593,60.8578349 C113.406593,58.5913745 110.547965,56.4717776 105.585449,54.6538462" id="Stroke-1275"></path>
                </g>
                <rect id="Rectangle-19" fill="#608AC6" x="103.956044" y="1.88461538" width="18.9010989" height="9.42307692"></rect>
                <g id="Group-8" transform="translate(94.505495, 0.000000)">
                    <path d="M9.45054945,13.1923077 L28.3516484,13.1923077 L28.3516484,86.6923077 C28.3516484,86.6923077 22.4945426,96.1153846 18.9010989,96.1153846 C15.3076552,96.1153846 9.45054945,86.6923077 9.45054945,86.6923077 L9.45054945,13.1923077 Z" id="Rectangle-20" fill="#FFFFFF"></path>
                    <path d="M0,37.1801839 L0,17.5066186 C0,14.0604191 2.79957185,11.2667224 6.23736264,11.2667224 L12.4747253,11.2667224" id="Path-33" stroke="#6B7C93" stroke-width="2.72160011"></path>
                    <rect id="Rectangle-18" fill="#608AC6" x="7.93846154" y="2.25334448" width="20.4131868" height="9.01337793"></rect>
                    <path d="M29.2589802,86.1679303 L18.7120879,96.1471021 L8.16519566,86.1679303 L8.16519566,2.27586031 C8.16519566,1.77327884 8.5764831,1.36080005 9.0663598,1.36080005 L28.357816,1.36080005 C28.8534194,1.36080005 29.2589802,1.76891583 29.2589802,2.27586031 L29.2589802,86.1679303 Z" id="Rectangle-13" stroke="#6B7C93" stroke-width="2.72160011"></path>
                    <polygon id="Rectangle-17" fill-opacity="0.32" fill="#6B7C93" points="21.5472527 12.3933946 28.3516484 12.3933946 28.3516484 87.8804348 21.5472527 93.513796"></polygon>
                    <path d="M8.50549451,11.4920569 L28.9186813,11.4920569" id="Line" stroke="#6B7C93" stroke-width="2.72160011" stroke-linecap="square"></path>
                    <g id="Group-9" transform="translate(39.692308, 0.000000)">
                        <g id="Rectangle-14">
                            <use fill-opacity="0.44" fill="#608AC6" fill-rule="evenodd" xlink:href="#path-1"></use>
                            <rect stroke="#6B7C93" stroke-width="2.72160011" x="2.87288797" y="1.36080005" width="33.5685098" height="100.932246" rx="2.268"></rect>
                        </g>
                        <g id="Rectangle-15">
                            <use fill="#D8D8D8" fill-rule="evenodd" xlink:href="#path-2"></use>
                            <rect stroke="#6B7C93" stroke-width="2.72160011" x="4.0069539" y="14.8808669" width="7.4849933" height="1.78508886" rx="0.892544428"></rect>
                        </g>
                        <g id="Rectangle-15">
                            <use fill="#D8D8D8" fill-rule="evenodd" xlink:href="#path-3"></use>
                            <rect stroke="#6B7C93" stroke-width="2.72160011" x="4.0069539" y="50.9343786" width="7.4849933" height="1.78508886" rx="0.892544428"></rect>
                        </g>
                        <g id="Rectangle-15">
                            <use fill="#D8D8D8" fill-rule="evenodd" xlink:href="#path-4"></use>
                            <rect stroke="#6B7C93" stroke-width="2.72160011" x="4.0069539" y="86.9878904" width="7.4849933" height="1.78508886" rx="0.892544428"></rect>
                        </g>
                        <rect id="Rectangle-16" fill-opacity="0.35" fill="#6B7C93" x="24.1934066" y="1.12667224" width="12.4747253" height="101.400502"></rect>
                        <g id="Rectangle-15">
                            <use fill="#D8D8D8" fill-rule="evenodd" xlink:href="#path-5"></use>
                            <rect stroke="#6B7C93" stroke-width="2.72160011" x="4.0069539" y="32.9076228" width="12.021257" height="1.78508886" rx="0.892544428"></rect>
                        </g>
                        <g id="Rectangle-15">
                            <use fill="#D8D8D8" fill-rule="evenodd" xlink:href="#path-6"></use>
                            <rect stroke="#6B7C93" stroke-width="2.72160011" x="4.0069539" y="68.9611345" width="12.021257" height="1.78508886" rx="0.892544428"></rect>
                        </g>
                    </g>
                    <path d="M19.5059341,94.6404682 L19.5059341,102.527174" id="Path-34" stroke="#6B7C93" stroke-width="2.7216" stroke-linecap="round"></path>
                </g>
            </g>
        </g>
    </g>
</svg>