<?xml version="1.0" encoding="UTF-8"?>
<svg width="173px" height="159px" viewBox="0 0 173 159" version="1.1" xmlns="http://www.w3.org/2000/svg" xmlns:xlink="http://www.w3.org/1999/xlink">
    <!-- Generator: Sketch 43.2 (39069) - http://www.bohemiancoding.com/sketch -->
    <title>Group</title>
    <desc>Created with Sketch.</desc>
    <defs>
        <rect id="path-1" x="0" y="0" width="126.141374" height="105.915745" rx="7.938"></rect>
        <rect id="path-2" x="67.7180007" y="30.4507767" width="45.1453338" height="31.7747235" rx="1.323"></rect>
        <rect id="path-3" x="11.9502354" y="30.4507767" width="45.1453338" height="31.7747235" rx="1.323"></rect>
    </defs>
    <g id="Assets" stroke="none" stroke-width="1" fill="none" fill-rule="evenodd">
        <g id="Group">
            <ellipse id="Oval-5" fill="#F3F6F9" cx="85.9393527" cy="73.9829384" rx="73.6488583" ry="73.9829384"></ellipse>
            <g id="Group-15" transform="translate(0.959901, 30.351975)">
                <g id="Group-14">
                    <g id="Rectangle-5">
                        <use fill="#FFFFFF" fill-rule="evenodd" xlink:href="#path-1"></use>
                        <rect stroke="#6B7C93" stroke-width="3.969" x="1.9845" y="1.9845" width="122.172374" height="101.946745" rx="7.938"></rect>
                    </g>
                    <path d="M1.32780394,19.8592022 L124.81357,19.8592022" id="Path-26" stroke="#6B7C93" stroke-width="3.969"></path>
                    <ellipse id="Oval-4" fill="#608AC6" cx="30.5394905" cy="10.5915745" rx="2.65560787" ry="2.64789363"></ellipse>
                    <ellipse id="Oval-4" fill="#608AC6" cx="22.5726669" cy="10.5915745" rx="2.65560787" ry="2.64789363"></ellipse>
                    <ellipse id="Oval-4" fill="#608AC6" cx="14.6058433" cy="10.5915745" rx="2.65560787" ry="2.64789363"></ellipse>
                    <g id="Rectangle-6">
                        <use fill="#608AC6" fill-rule="evenodd" xlink:href="#path-2"></use>
                        <rect stroke="#6B7C93" stroke-width="3.969" x="69.7025007" y="32.4352767" width="41.1763338" height="27.8057235" rx="1.323"></rect>
                    </g>
                    <g id="Rectangle-6">
                        <use fill="#608AC6" fill-rule="evenodd" xlink:href="#path-3"></use>
                        <rect stroke="#6B7C93" stroke-width="3.969" x="13.9347354" y="32.4352767" width="41.1763338" height="27.8057235" rx="1.323"></rect>
                    </g>
                    <rect id="Rectangle-7" stroke="#6B7C93" stroke-width="3.969" x="15.2625394" y="73.477628" width="39.8485299" height="1.32678726" rx="0.663393628"></rect>
                    <rect id="Rectangle-7" stroke="#6B7C93" stroke-width="3.969" x="72.3581086" y="73.477628" width="39.8485299" height="1.32678726" rx="0.663393628"></rect>
                    <rect id="Rectangle-7" stroke="#6B7C93" stroke-width="3.969" x="72.3581086" y="88.0410429" width="39.8485299" height="1.32678726" rx="0.663393628"></rect>
                    <rect id="Rectangle-7" stroke="#6B7C93" stroke-width="3.969" x="15.2625394" y="88.0410429" width="39.8485299" height="1.32678726" rx="0.663393628"></rect>
                </g>
                <g id="Group-3" transform="translate(86.307256, 43.690245)" stroke="#6B7C93" stroke-width="3.3075" stroke-linecap="round" stroke-linejoin="round">
                    <path d="M26.8880297,49.9789922 L26.8880297,56.5987263" id="Stroke-1122"></path>
                    <path d="M33.5270494,49.9789922 L33.5270494,56.5987263" id="Stroke-1123"></path>
                    <path d="M40.1660691,49.9789922 L40.1660691,56.5987263" id="Stroke-1124"></path>
                    <path d="M76.6806773,53.2888593 C76.6806773,54.2023826 75.9371071,54.9437928 75.0209224,54.9437928 C74.1047377,54.9437928 73.3611675,54.2023826 73.3611675,53.2888593 C73.3611675,52.375336 74.1047377,51.6339258 75.0209224,51.6339258 C75.9371071,51.6339258 76.6806773,52.375336 76.6806773,53.2888593 Z" id="Stroke-1125"></path>
                    <path d="M66.7221478,53.2888593 C66.7221478,54.2023826 65.9785776,54.9437928 65.0623929,54.9437928 C64.1462081,54.9437928 63.4026379,54.2023826 63.4026379,53.2888593 C63.4026379,52.375336 64.1462081,51.6339258 65.0623929,51.6339258 C65.9785776,51.6339258 66.7221478,52.375336 66.7221478,53.2888593 Z" id="Stroke-1127"></path>
                    <path d="M26.8880297,69.8381944 L26.8880297,76.4579285" id="Stroke-1129"></path>
                    <path d="M33.5270494,69.8381944 L33.5270494,76.4579285" id="Stroke-1131"></path>
                    <path d="M40.1660691,69.8381944 L40.1660691,76.4579285" id="Stroke-1133"></path>
                    <path d="M76.6806773,43.3592582 L76.6806773,30.7817634 L67.2300328,28.4251381 C66.8416501,27.306403 66.4101138,26.2240765 65.8989093,25.1715388 L70.8980911,16.8604627 L60.1030452,6.09677508 L51.7677559,11.0814348 C50.7121518,10.5717153 49.6266721,10.1414326 48.5046778,9.75417815 L46.1411868,0.330986704 L30.8714415,0.330986704 L28.5079505,9.75417815 C27.3859562,10.1414326 26.3004765,10.5717153 25.2448723,11.0814348 L16.9095831,6.09677508 L6.11453712,16.8604627 L11.1137189,25.1715388 C10.6025144,26.2240765 10.1709781,27.306403 9.7825955,28.4251381 L0.331950984,30.7817634 L0.331950984,46.0071518 L0.351868043,46.1825747 L9.80251256,48.5358902 C10.1908952,49.6546253 10.619112,50.7369518 11.133636,51.7927994 L6.13445418,60.1038755 L16.9328197,70.870873 L20.24901,68.8816429" id="Stroke-1141" fill="#FFFFFF"></path>
                    <path d="M76.6806773,73.1480615 C76.6806773,74.0615848 75.9371071,74.802995 75.0209224,74.802995 C74.1047377,74.802995 73.3611675,74.0615848 73.3611675,73.1480615 C73.3611675,72.2345382 74.1047377,71.493128 75.0209224,71.493128 C75.9371071,71.493128 76.6806773,72.2345382 76.6806773,73.1480615 Z" id="Stroke-1135"></path>
                    <path d="M66.7221478,73.1480615 C66.7221478,74.0615848 65.9785776,74.802995 65.0623929,74.802995 C64.1462081,74.802995 63.4026379,74.0615848 63.4026379,73.1480615 C63.4026379,72.2345382 64.1462081,71.493128 65.0623929,71.493128 C65.9785776,71.493128 66.7221478,72.2345382 66.7221478,73.1480615 Z" id="Stroke-1137"></path>
                    <path d="M56.0568946,43.3592582 C56.5083479,41.7771417 56.7639502,40.1188983 56.7639502,38.3944576 C56.7639502,28.3390816 48.5879975,20.1901889 38.5066461,20.1901889 C28.4252947,20.1901889 20.249342,28.3390816 20.249342,38.3944576 C20.249342,40.7411533 20.7107538,42.9786235 21.5240337,45.0373607" id="Stroke-1139"></path>
                    <polygon id="Stroke-1143" points="76.7002624 30.9568554 76.6803453 43.3589272 76.7002624 43.3589272"></polygon>
                    <path d="M78.3404322,83.0776626 L25.2282748,83.0776626 C22.4797206,83.0776626 20.24901,80.8534319 20.24901,78.112862 L20.24901,68.1832609 C20.24901,65.442691 22.4797206,63.2184604 25.2282748,63.2184604 L78.3404322,63.2184604 C81.0889864,63.2184604 83.319697,65.442691 83.319697,68.1832609 L83.319697,78.112862 C83.319697,80.8534319 81.0889864,83.0776626 78.3404322,83.0776626 Z" id="Stroke-1145"></path>
                    <path d="M78.3404322,63.2184604 L25.2282748,63.2184604 C22.4797206,63.2184604 20.24901,60.9942297 20.24901,58.2536598 L20.24901,48.3240587 C20.24901,45.5834888 22.4797206,43.3592582 25.2282748,43.3592582 L78.3404322,43.3592582 C81.0889864,43.3592582 83.319697,45.5834888 83.319697,48.3240587 L83.319697,58.2536598 C83.319697,60.9942297 81.0889864,63.2184604 78.3404322,63.2184604 Z" id="Stroke-1147"></path>
                </g>
            </g>
        </g>
    </g>
</svg>