<?xml version="1.0" encoding="UTF-8"?>
<svg width="171px" height="122px" viewBox="0 0 171 122" version="1.1" xmlns="http://www.w3.org/2000/svg" xmlns:xlink="http://www.w3.org/1999/xlink">
    <!-- Generator: Sketch 43.2 (39069) - http://www.bohemiancoding.com/sketch -->
    <title>Group 13</title>
    <desc>Created with Sketch.</desc>
    <defs>
        <rect id="path-1" x="19.5294118" y="96.4843811" width="71.6078431" height="20.8614878" rx="10.4307439"></rect>
    </defs>
    <g id="Assets" stroke="none" stroke-width="1" fill="none" fill-rule="evenodd">
        <g id="Group-13" transform="translate(3.000000, 1.000000)">
            <ellipse id="Oval-5" fill="#F3F6F9" cx="95.7117117" cy="62.7407407" rx="58.3243243" ry="58.2592593"></ellipse>
            <g id="Group-11" transform="translate(98.702703, 59.753086)">
                <path d="M0,10.9058475 C0,9.97032501 0.755780194,9.21193416 1.68032792,9.21193416 L65.6169694,9.21193416 C66.5449889,9.21193416 67.2972973,9.97295698 67.2972973,10.9058475 L67.2972973,53.5776915 C67.2972973,54.5132141 66.5415171,55.2716049 65.6169694,55.2716049 L1.68032792,55.2716049 C0.752308437,55.2716049 0,54.5105821 0,53.5776915 L0,10.9058475 Z" id="Path-23" stroke="#6B7C93" stroke-width="2.77097371" fill="#FFFFFF"></path>
                <rect id="Rectangle-21" fill="#C5CEDF" x="0.841216216" y="10.0493827" width="65.6148649" height="5.86213992"></rect>
                <path d="M0,17.0420782 L67.2972973,17.0420782" id="Path-24" stroke="#6B7C93" stroke-width="2.77097371"></path>
                <ellipse id="Oval-2" stroke="#6B7C93" stroke-width="2.77097371" cx="33.6486486" cy="35.4659465" rx="14.2891522" ry="14.2784979"></ellipse>
                <ellipse id="Oval-3" fill="#608AC6" cx="33.1877083" cy="35.9265432" rx="8.29692706" ry="8.29074074"></ellipse>
                <rect id="Rectangle-3" stroke="#6B7C93" stroke-width="2.77097371" x="55.7764532" y="23.4941288" width="3.68219178" height="1"></rect>
                <polyline id="Path-25" stroke="#6B7C93" stroke-width="2.77097371" points="18.4376157 9.21193416 23.0470196 0 44.2502777 0 48.8596816 9.21193416"></polyline>
                <rect id="Rectangle-4" stroke="#6B7C93" stroke-width="2.77097371" x="3.22924843" y="1.38548686" width="7.36971492" height="1" rx="0.5"></rect>
            </g>
            <g id="Group-12">
                <g id="Rectangle-23">
                    <use fill="#FFFFFF" fill-rule="evenodd" xlink:href="#path-1"></use>
                    <rect stroke="#6B7C93" stroke-width="3.43745628" x="21.2481399" y="98.2031093" width="68.1703869" height="17.4240315" rx="8.71201577"></rect>
                </g>
                <path d="M22.1333333,108.218968 L88.5333333,108.218968 L88.5333333,111.478575 C88.5333333,113.278807 87.0690893,114.738183 85.2744935,114.738183 L25.3921731,114.738183 C23.5923656,114.738183 22.1333333,113.275144 22.1333333,111.478575 L22.1333333,108.218968 Z" id="Rectangle-24" fill-opacity="0.28" fill="#6B7C93"></path>
                <path d="M37.7568627,99.0920671 L13.0196078,63.8883064" id="Path-35" stroke="#6B7C93" stroke-width="4.58327504"></path>
                <path d="M14.3215686,52.1537195 L41.6627451,28.6845457" id="Path-36" stroke="#6B7C93" stroke-width="4.58327504"></path>
                <path d="M78.1176471,62.5844634 C78.1176471,62.5844634 91.1372549,69.1036784 97.6470588,61.2806204 C104.156863,53.4575625 98.9490196,41.7229756 98.9490196,41.7229756" id="Path-38" fill="#608AC6"></path>
                <path d="M37.9710916,21.2784772 C37.1337232,20.3280877 37.1963015,18.8615779 38.1244072,17.990221 L55.6167693,1.56742387 C56.5388116,0.701759568 58.0120603,0.726835016 58.9038392,1.61990314 L75.5137255,18.2538018 C75.5137255,18.2538018 89.8352941,16.9499588 97.6470588,19.5576448 C105.458824,22.1653308 109.131233,27.0024899 109.131233,27.0024899 C109.97923,27.9314637 109.941692,29.4105688 109.044855,30.3087019 L66.7198508,72.6948942 C65.824149,73.5918908 64.1811608,73.861697 63.0850682,73.2219503 C63.0850682,73.2219503 55.9843137,70.4075214 54.6823529,61.2806204 C53.3803922,52.1537195 55.9843137,41.7229756 55.9843137,41.7229756 L37.9710916,21.2784772 Z" id="Path-37" stroke="#6B7C93" stroke-width="3.43745628" fill="#FFFFFF"></path>
                <ellipse id="Oval-7" stroke="#6B7C93" stroke-width="4.58327504" fill="#FFFFFF" cx="9.11372549" cy="57.3690915" rx="9.11372549" ry="9.12690092"></ellipse>
                <path d="M74.2117647,63.8883064 C74.2117647,63.8883064 66.4,61.2806204 65.0980392,50.8498765 C63.7960784,40.4191326 66.4,29.9883887 66.4,29.9883887 L46.8705882,10.4307439 L39.0588235,19.5576448 L55.9843137,40.4191326 C55.9843137,40.4191326 53.7568233,56.9173357 55.9843137,63.8883064 C58.2118041,70.8592771 66.4,73.0152073 66.4,73.0152073" id="Path-39" fill-opacity="0.23" fill="#6B7C93"></path>
            </g>
        </g>
    </g>
</svg>