<?xml version="1.0" encoding="UTF-8"?>
<svg width="169px" height="149px" viewBox="0 0 169 149" version="1.1" xmlns="http://www.w3.org/2000/svg" xmlns:xlink="http://www.w3.org/1999/xlink">
    <!-- Generator: Sketch 43.2 (39069) - http://www.bohemiancoding.com/sketch -->
    <title>Group 2</title>
    <desc>Created with Sketch.</desc>
    <defs>
        <rect id="path-1" x="0" y="0" width="48.5596868" height="80.7601929" rx="24.2798434"></rect>
        <rect id="path-2" x="22.5455689" y="7.81550254" width="3.46854906" height="27.7884535" rx="1.73427453"></rect>
        <rect id="path-3" x="19.0770198" y="11.2890592" width="10.4056472" height="15.6310051" rx="5.20282358"></rect>
    </defs>
    <g id="Assets" stroke="none" stroke-width="1" fill="none" fill-rule="evenodd">
        <g id="Group-2" transform="translate(0.000000, 1.000000)">
            <ellipse id="Oval-5" fill="#F3F6F9" cx="73.7199621" cy="73.918163" rx="73.6488583" ry="73.6993525"></ellipse>
            <g id="Group-6" transform="translate(17.066994, 0.218810)">
                <g id="headphones">
                    <rect id="Rectangle-8" fill="#608AC6" x="55.5738638" y="65.0417661" width="9.71193736" height="46.6132657"></rect>
                    <rect id="Rectangle-8" fill="#608AC6" x="32.3731245" y="64.4997514" width="9.71193736" height="46.6132657"></rect>
                    <path d="M54.4377836,70.9908598 C54.4692506,68.303959 56.5395788,65.392523 59.1523611,64.7321432 C59.1523611,64.7321432 60.9306674,63.2285681 68.5231136,64.4997514 C78.2350509,66.1257955 90.6447487,75.8820604 91.1843008,85.0963106 C91.7067681,94.0187948 85.0464012,105.894164 77.1559468,110.028988 C69.2654924,114.163811 58.7850175,112.582404 58.7850175,112.582404 C56.1175871,112.369577 53.9806877,110.021353 54.0121835,107.331982 L54.4377836,70.9908598 Z" id="Path-30" stroke="#6B7C93" stroke-width="3.24"></path>
                    <path d="M6.90082134,70.9586033 C6.93228832,68.2717025 9.00261651,65.3602665 11.6153988,64.6998868 C11.6153988,64.6998868 13.3937051,63.1963116 20.9861513,64.4674949 C30.6980887,66.093539 43.1077864,75.8498039 43.6473385,85.0640541 C44.1698058,93.9865384 37.5094389,105.861908 29.6189845,109.996731 C21.7285301,114.131555 11.2480552,112.550148 11.2480552,112.550148 C8.58062483,112.33732 6.44372537,109.989096 6.47522126,107.299726 L6.90082134,70.9586033 Z" id="Path-30" stroke="#6B7C93" stroke-width="3.24" transform="translate(25.075379, 88.402129) scale(-1, 1) translate(-25.075379, -88.402129) "></path>
                    <path d="M9.17238528,24.932677 C9.17238528,24.932677 2.1582083,34.6889419 1.07910415,43.3611774 C0,52.0334129 0,86.1803401 0,86.1803401 C0,86.1803401 1.07910415,90.5164578 3.77686453,92.6845167 C6.47462491,94.8525755 10.7910415,95.3945903 10.7910415,95.3945903 L11.7772079,55.2725579 C11.828536,53.184281 12.1879652,49.8378615 12.6260849,47.7910078 C12.6260849,47.7910078 13.4888019,42.277148 15.6470102,38.4830449 C17.8052185,34.6889419 20.5029789,32.520883 20.5029789,32.520883" id="Path-28" stroke="#6B7C93" stroke-width="3.24" fill="#FFFFFF"></path>
                    <path d="M77.6954989,31.9788683 C77.6954989,31.9788683 80.8427446,34.1953369 83.0910196,41.1931185 C83.7894169,43.3668881 84.8509749,48.3557001 84.8509749,48.3557001 C85.3689104,50.6861912 85.78878,54.5070063 85.78878,56.8865795 L85.78878,93.7685461 C85.78878,93.7685461 89.0260925,95.3945903 92.802957,93.2265314 C96.5798215,91.0584725 97.6589257,86.1803401 97.6589257,86.1803401 L98.1683129,49.8487709 C98.1849725,48.6605437 98.0150802,46.7568894 97.7783465,45.5778739 C97.7783465,45.5778739 96.5683745,39.1303777 95.5007174,36.3149861 C94.4330602,33.4995944 89.5656445,24.932677 89.5656445,24.932677 L77.6954989,31.9788683 Z" id="Path-29" stroke="#6B7C93" stroke-width="3.24" fill="#FFFFFF"></path>
                    <path d="M65.2856219,63.9577366 L64.7462491,112.739061" id="Path-31" stroke="#6B7C93" stroke-width="3.24"></path>
                    <path d="M7.95648195,21.0493557 C7.1380749,22.2960155 7.48932637,23.9619182 8.73636403,24.7672443 L19.3203439,31.6022863 C20.5694679,32.4089597 22.4284834,32.2038092 23.5178586,31.1886736 C23.5178586,31.1886736 32.9126766,20.5965593 49.3690149,20.0545445 C65.8253532,19.5125298 74.2605067,30.5392086 74.2605067,30.5392086 C75.2636413,31.6336572 77.1264163,31.92341 78.4305078,31.181052 L89.9097398,24.6464639 C91.2096331,23.9064957 91.5683232,22.3210964 90.6606244,21.1385595 C90.6606244,21.1385595 77.1559468,-3.37507799e-14 48.0201347,0.542014717 C18.8843226,1.08402943 7.95648195,21.0493557 7.95648195,21.0493557 Z" id="Path-27" stroke="#6B7C93" stroke-width="3.24" fill="#C5CEDF"></path>
                    <path d="M32.9126766,63.9577366 L32.9126766,112.739061" id="Path-32" stroke="#6B7C93" stroke-width="3.24"></path>
                </g>
                <g id="Group-5" transform="translate(102.514894, 59.079604)">
                    <g id="Rectangle-9">
                        <use fill="#FFFFFF" fill-rule="evenodd" xlink:href="#path-1"></use>
                        <rect stroke="#6B7C93" stroke-width="2.60357143" x="1.30178571" y="1.30178571" width="45.9561154" height="78.1566215" rx="22.9780577"></rect>
                    </g>
                    <g id="Rectangle-10">
                        <use fill="#D8D8D8" fill-rule="evenodd" xlink:href="#path-2"></use>
                        <rect stroke="#6B7C93" stroke-width="2.60357143" x="23.8473546" y="9.11728825" width="1" height="25.184882" rx="0.5"></rect>
                    </g>
                    <g id="Rectangle-11">
                        <use fill="#E4E9EE" fill-rule="evenodd" xlink:href="#path-3"></use>
                        <rect stroke="#6B7C93" stroke-width="2.60357143" x="20.3788055" y="12.5908449" width="7.80207574" height="13.0274336" rx="3.90103787"></rect>
                    </g>
                    <path d="M1.73427453,51.2349611 C1.73427453,51.2349611 9.53850991,63.3924095 24.713412,63.3924095 C39.8883142,63.3924095 47.6925495,51.2349611 47.6925495,51.2349611 L47.3801057,59.0573328 C47.073757,66.7271086 40.8949804,74.8347155 33.5399521,77.0161662 C33.5399521,77.0161662 28.4347835,79.0234145 24.2798434,79.0234145 C20.1249033,79.0234145 15.0046755,77.0119495 15.0046755,77.0119495 C7.6756354,74.7656643 1.73427453,66.7235533 1.73427453,59.0419999 L1.73427453,51.2349611 Z" id="Rectangle-12" fill-opacity="0.08" fill="#6B7C93"></path>
                </g>
            </g>
        </g>
    </g>
</svg>