<?xml version="1.0" encoding="UTF-8"?>
<svg width="23px" height="19px" viewBox="0 0 23 19" version="1.1" xmlns="http://www.w3.org/2000/svg" xmlns:xlink="http://www.w3.org/1999/xlink">
    <!-- Generator: Sketch 43.2 (39069) - http://www.bohemiancoding.com/sketch -->
    <title>twitter</title>
    <desc>Created with Sketch.</desc>
    <defs></defs>
    <g id="Assets" stroke="none" stroke-width="1" fill="none" fill-rule="evenodd">
        <g id="twitter" transform="translate(-12.619048, -14.380952)" fill="#6B7C93">
            <g transform="translate(11.904762, 14.285714)" id="Twitter">
                <g>
                    <path d="M20.6142857,5.0547619 C20.6238095,5.24761905 20.627381,5.44285714 20.627381,5.63571429 C20.627381,11.5761905 16.1071429,18.4238095 7.84166667,18.4238095 C5.30238095,18.4238095 2.94166667,17.6797619 0.952380952,16.4035714 C1.3047619,16.4452381 1.66190476,16.4666667 2.02380952,16.4666667 C4.13095238,16.4666667 6.06785714,15.747619 7.6047619,14.5440476 C5.63928571,14.5071429 3.97857143,13.2095238 3.40714286,11.4238095 C3.68095238,11.475 3.96309524,11.502381 4.25238095,11.502381 C4.66309524,11.502381 5.06071429,11.4488095 5.43690476,11.3464286 C3.38095238,10.9321429 1.83214286,9.11666667 1.83214286,6.93809524 L1.83214286,6.88214286 C2.43809524,7.21904762 3.13214286,7.42142857 3.86785714,7.4452381 C2.66190476,6.63809524 1.86785714,5.26428571 1.86785714,3.70357143 C1.86785714,2.88095238 2.08928571,2.10833333 2.47738095,1.44404762 C4.69285714,4.16428571 8.00595238,5.95238095 11.7404762,6.14047619 C11.6642857,5.81071429 11.625,5.46904762 11.625,5.11547619 C11.625,2.63452381 13.6357143,0.623809524 16.1178571,0.623809524 C17.4107143,0.623809524 18.5785714,1.16785714 19.3988095,2.04166667 C20.4214286,1.83928571 21.3833333,1.46547619 22.252381,0.951190476 C21.9166667,2 21.2035714,2.88095238 20.2761905,3.43690476 C21.1857143,3.32738095 22.05,3.08809524 22.8571429,2.7297619 C22.2547619,3.63214286 21.4928571,4.42261905 20.6142857,5.0547619 Z" id="Shape"></path>
                </g>
            </g>
        </g>
    </g>
</svg>