<?xml version="1.0" standalone="no"?>
<!DOCTYPE svg PUBLIC "-//W3C//DTD SVG 1.1//EN" "http://www.w3.org/Graphics/SVG/1.1/DTD/svg11.dtd" >
<svg xmlns="http://www.w3.org/2000/svg">
<metadata></metadata>
<defs>
<font id="brix_sansmedium" horiz-adv-x="964" >
<font-face units-per-em="2048" ascent="1475" descent="-573" />
<missing-glyph horiz-adv-x="417" />
<glyph unicode="&#xfb01;" horiz-adv-x="1167" d="M43 758v155l154 21v145q0 161 78.5 247.5t238.5 86.5h121v-176h-109q-68 0 -96.5 -40.5t-28.5 -119.5v-143h639v-934h-204v758h-435v-758h-204v758h-154zM803 1264q0 65 36.5 98t96.5 33q54 0 92.5 -34t38.5 -97q0 -64 -38 -96.5t-93 -32.5q-61 0 -97 31.5t-36 97.5z" />
<glyph unicode="&#xfb02;" horiz-adv-x="1187" d="M43 758v155l154 21v145q0 161 78.5 247.5t238.5 86.5h121v-176h-109q-68 0 -96.5 -40.5t-28.5 -119.5v-143h258v-176h-258v-758h-204v758h-154zM809 256v1157h205v-1128q0 -55 19 -79t67 -24h49v-190h-111q-125 0 -177 68.5t-52 195.5z" />
<glyph horiz-adv-x="0" />
<glyph horiz-adv-x="0" />
<glyph horiz-adv-x="682" />
<glyph unicode=" "  horiz-adv-x="417" />
<glyph unicode="&#x09;" horiz-adv-x="417" />
<glyph unicode="&#xa0;" horiz-adv-x="417" />
<glyph unicode="!" horiz-adv-x="491" d="M102 125q0 60 41.5 99.5t104.5 39.5q62 0 102.5 -39.5t40.5 -99.5t-40.5 -98.5t-102.5 -38.5q-63 0 -104.5 38.5t-41.5 98.5zM123 1384h248l-39 -935h-172z" />
<glyph unicode="&#x22;" horiz-adv-x="757" d="M106 1384h203l-22 -499h-158zM453 1384h198l-22 -499h-158z" />
<glyph unicode="#" horiz-adv-x="1296" d="M72 381l26 182h207l43 287h-201l23 184h207l53 350h199l-56 -350h240l55 350h197l-51 -350h211l-27 -184h-215l-43 -287h211l-25 -182h-217l-57 -381h-199l60 381h-240l-57 -381h-201l59 381h-202zM502 563h241l43 287h-241z" />
<glyph unicode="$" horiz-adv-x="1124" d="M70 236l159 120q39 -81 101 -128.5t176 -55.5v434l-57 17q-324 101 -324 370q0 101 38.5 185.5t126.5 146t216 76.5v153h133v-149q266 -19 385 -203l-156 -123q-79 116 -229 133v-430l66 -18q171 -53 253 -143.5t82 -229.5q0 -170 -108 -278.5t-293 -128.5v-195h-133v191 q-319 16 -436 256zM352 1006q0 -70 37 -113.5t117 -71.5v383q-75 -18 -114.5 -71t-39.5 -127zM639 176q86 17 131 69t45 132q0 71 -45 115.5t-131 72.5v-389z" />
<glyph unicode="%" horiz-adv-x="1687" d="M70 1018q0 178 75 277.5t232 99.5q158 0 232.5 -99.5t74.5 -277.5t-75 -278.5t-232 -100.5q-158 0 -232.5 100t-74.5 279zM231 1018q0 -130 33.5 -192t112.5 -62t112 61.5t33 192.5t-33 192.5t-112 61.5t-112.5 -62t-33.5 -192zM344 0l823 1384h174l-829 -1384h-168z M999 367q0 178 75.5 277t232.5 99q158 0 232.5 -99t74.5 -277t-75 -278.5t-232 -100.5q-158 0 -233 100.5t-75 278.5zM1161 367q0 -130 33.5 -192t112.5 -62t112 61.5t33 192.5t-33 192.5t-112 61.5t-112.5 -62t-33.5 -192z" />
<glyph unicode="&#x26;" horiz-adv-x="1329" d="M76 301q0 54 18 105t43 88.5t67 78.5t74 65.5t80 59.5l23 17l-37 39q-79 84 -107 124q-67 97 -67 193q0 142 107.5 239t289.5 97q168 0 275.5 -98t107.5 -238q0 -52 -17.5 -98t-55 -90.5t-77 -80t-102.5 -83.5l-47 -35l219 -231l27 34l180 250l150 -112l-185 -256 l-41 -56l285 -297v-16h-237l-162 172q-186 -195 -430 -195q-177 0 -279 91.5t-102 232.5zM274 307q0 -64 53 -108.5t130 -44.5q160 0 301 155l-252 271l-35 -25q-45 -33 -62.5 -46.5t-51 -43t-46.5 -49t-25 -49t-12 -60.5zM367 1071q0 -57 30.5 -105.5t91.5 -109.5l37 -39 l56 39q91 68 130.5 113t39.5 102q0 64 -50.5 112t-134.5 48q-91 0 -145.5 -48t-54.5 -112z" />
<glyph unicode="'" horiz-adv-x="413" d="M109 1384h198l-22 -499h-158z" />
<glyph unicode="(" horiz-adv-x="575" d="M86 494q0 149 21 281t63.5 249t90.5 211.5t118 206.5l160 -62q-113 -221 -174.5 -435.5t-61.5 -450.5q0 -244 56 -452t176 -437l-156 -60q-144 216 -218.5 443t-74.5 506z" />
<glyph unicode=")" horiz-adv-x="573" d="M37 1380l158 62q70 -112 118.5 -207t91 -211.5t63.5 -248t21 -281.5q0 -280 -74.5 -507t-219.5 -442l-154 60q120 229 175.5 436.5t55.5 452.5q0 237 -61 451.5t-174 434.5z" />
<glyph unicode="*" horiz-adv-x="954" d="M80 1036l51 185l266 -93l-14 297h195l-17 -295l277 78l39 -182l-267 -45l176 -229l-153 -109l-164 250l-190 -250l-125 115l194 227z" />
<glyph unicode="+" horiz-adv-x="1146" d="M86 463v178h387v403h195v-403h393v-178h-393v-402h-195v402h-387z" />
<glyph unicode="," horiz-adv-x="466" d="M82 -225l51 491h227l-120 -491h-158z" />
<glyph unicode="-" horiz-adv-x="796" d="M119 465v176h559v-176h-559z" />
<glyph unicode="." horiz-adv-x="493" d="M94 131q0 65 43.5 107.5t110.5 42.5q65 0 108 -43t43 -107q0 -61 -43 -102t-108 -41q-67 0 -110.5 40.5t-43.5 102.5z" />
<glyph unicode="/" horiz-adv-x="751" d="M55 0l426 1384h215l-430 -1384h-211z" />
<glyph unicode="0" horiz-adv-x="1226" d="M100 692q0 338 126.5 526.5t387.5 188.5q262 0 387 -188t125 -527q0 -166 -30 -295.5t-91 -224.5t-159.5 -145t-231.5 -50q-134 0 -233.5 50t-160.5 145t-90.5 224.5t-29.5 295.5zM324 692q0 -264 68 -395t222 -131q153 0 221 131t68 395t-68 395.5t-221 131.5 q-154 0 -222 -131t-68 -396z" />
<glyph unicode="1" horiz-adv-x="813" d="M16 1198l449 186h190v-1384h-217v1176l-366 -148z" />
<glyph unicode="2" horiz-adv-x="1069" d="M90 973q0 198 110.5 316t319.5 118q198 0 317 -115.5t119 -298.5q0 -70 -20.5 -136.5t-62 -131.5t-84.5 -117t-109 -121l-287 -307h584v-180h-875v156l430 462q101 107 150 194.5t49 180.5q0 102 -55 164t-156 62q-104 0 -158.5 -66t-54.5 -180h-217z" />
<glyph unicode="3" horiz-adv-x="1122" d="M90 352h217q0 -86 65 -137t179 -51t181 59t67 158q0 109 -77.5 173t-211.5 64h-131v181h131q124 0 195 55.5t71 159.5q0 93 -60 149t-165 56q-107 0 -165 -52t-58 -135h-219q0 77 26.5 143.5t79 119t138.5 82.5t198 30q206 0 328 -107t122 -276q0 -121 -69.5 -205 t-175.5 -110q111 -23 189.5 -114.5t78.5 -225.5q0 -174 -129.5 -283t-343.5 -109q-229 0 -345 103.5t-116 271.5z" />
<glyph unicode="4" horiz-adv-x="1177" d="M57 287v162l639 935h228v-917h180v-180h-180v-287h-217v287h-650zM289 467h418v623z" />
<glyph unicode="5" horiz-adv-x="1085" d="M72 371h217q0 -93 61 -150t176 -57q124 0 187 76.5t63 205.5q0 116 -64 185t-180 69q-123 0 -221 -77l-176 26l86 735h729v-180h-551l-45 -379q107 62 221 62q70 0 133 -16.5t117 -51.5t93 -86t61 -125t22 -164q0 -98 -30.5 -182t-88.5 -148t-149 -100.5t-205 -36.5 q-116 0 -205 30.5t-143 85t-81 125t-27 153.5z" />
<glyph unicode="6" horiz-adv-x="1159" d="M100 645q0 137 18.5 252.5t58.5 210.5t99 161t143.5 102t188.5 36q108 0 192.5 -29t136.5 -81t78.5 -119t26.5 -146h-219q0 86 -57.5 136.5t-157.5 50.5q-96 0 -160.5 -61.5t-94 -166t-29.5 -248.5q47 54 132.5 97t188.5 43q198 0 312 -120t114 -321q0 -95 -30 -178 t-87.5 -148t-150 -102t-209.5 -37q-102 0 -184 32.5t-139.5 91.5t-96 142.5t-56.5 184t-18 217.5zM328 539q0 -77 16 -143.5t47 -119t83 -82.5t120 -30q123 0 188.5 74t65.5 202q0 124 -65.5 194.5t-188.5 70.5q-89 0 -159 -48t-107 -118z" />
<glyph unicode="7" horiz-adv-x="980" d="M61 1204v180h875v-157l-508 -1227h-238l502 1204h-631z" />
<glyph unicode="8" horiz-adv-x="1179" d="M98 375q0 136 75 222t189 116q-106 33 -170.5 110.5t-64.5 196.5q0 178 124.5 282.5t338.5 104.5q216 0 339.5 -104.5t123.5 -282.5q0 -118 -64.5 -196t-169.5 -111q112 -31 186 -116.5t74 -221.5q0 -189 -132.5 -293.5t-356.5 -104.5t-358 104.5t-134 293.5zM324 393 q0 -109 71 -169t193 -60q124 0 196 60t72 169t-74.5 168.5t-193.5 59.5q-117 0 -190.5 -59.5t-73.5 -168.5zM350 1010q0 -99 67 -153t173 -54t172.5 54t66.5 153q0 101 -64 155t-175 54t-175.5 -54t-64.5 -155z" />
<glyph unicode="9" horiz-adv-x="1161" d="M90 942q0 95 30 178t87.5 148t150.5 102t211 37q127 0 222.5 -50t153.5 -141t87 -210.5t29 -266.5q0 -172 -30 -309.5t-90.5 -240t-159.5 -157.5t-230 -55q-211 0 -321.5 105t-110.5 270h219q0 -86 57.5 -136t155.5 -50q145 0 216 127t71 348q-45 -53 -132 -97t-190 -44 q-198 0 -312 120.5t-114 321.5zM313 944q0 -124 66 -194t190 -70q88 0 158 48t107 118q0 77 -16 143.5t-47.5 119t-83 82.5t-118.5 30q-125 0 -190.5 -74.5t-65.5 -202.5z" />
<glyph unicode=":" horiz-adv-x="514" d="M113 125q0 60 41 99.5t104 39.5q62 0 102.5 -39.5t40.5 -99.5t-40.5 -98.5t-102.5 -38.5q-63 0 -104 38.5t-41 98.5zM113 815q0 61 41 100t104 39q62 0 102.5 -39t40.5 -100q0 -60 -40.5 -98.5t-102.5 -38.5q-63 0 -104 38.5t-41 98.5z" />
<glyph unicode=";" horiz-adv-x="503" d="M100 -225l52 491h225l-121 -491h-156zM113 815q0 61 40.5 100t102.5 39t102.5 -39t40.5 -100q0 -60 -40.5 -98.5t-102.5 -38.5t-102.5 38.5t-40.5 98.5z" />
<glyph unicode="&#x3c;" horiz-adv-x="1146" d="M137 449v208l840 332v-190l-664 -248l664 -246v-190z" />
<glyph unicode="=" horiz-adv-x="1146" d="M152 225v176h841v-176h-841zM152 705v178h841v-178h-841z" />
<glyph unicode="&#x3e;" horiz-adv-x="1146" d="M168 115v190l663 246l-663 248v190l842 -332v-208z" />
<glyph unicode="?" horiz-adv-x="921" d="M68 1075q0 68 22 126.5t66 105t117 72.5t167 26q193 0 302.5 -100t109.5 -254q0 -67 -23 -126.5t-57.5 -101t-75 -86.5t-75 -83.5t-57.5 -92t-23 -112.5h-211q0 73 23 138.5t58 110t75.5 90t75.5 81.5t58 82t23 93q0 71 -50 120.5t-138 49.5q-87 0 -137 -44.5t-50 -112.5 zM291 125q0 60 40 99.5t103 39.5q62 0 103 -39.5t41 -99.5t-41 -98.5t-103 -38.5q-63 0 -103 38.5t-40 98.5z" />
<glyph unicode="@" horiz-adv-x="1851" d="M88 375q0 158 40.5 303t120.5 267t191.5 212t262 140.5t323.5 50.5q149 0 271 -34t206 -93.5t141.5 -141.5t84 -176.5t26.5 -200.5q0 -158 -39.5 -290t-106 -218.5t-152 -134t-179.5 -47.5q-174 0 -201 140q-137 -123 -291 -123q-140 0 -215 87t-75 257q0 139 51 262 t147.5 200.5t216.5 77.5q84 0 137 -25.5t93 -70.5l16 78h174l-96 -553q-18 -85 -5 -130.5t66 -45.5t103.5 32.5t93 95.5t68.5 169t26 239q0 104 -31 190t-95.5 154t-175.5 106t-259 38t-274.5 -44t-216.5 -120.5t-153.5 -180t-94.5 -223t-31 -249.5q0 -281 137 -431.5 t422 -150.5q218 0 389 80l35 -145q-202 -93 -422 -93q-186 0 -326.5 53t-228 152t-131 233.5t-43.5 303.5zM678 387q0 -192 151 -192q61 0 120 25t98 63l71 393q-80 76 -180 76q-77 0 -137.5 -52.5t-91.5 -135t-31 -177.5z" />
<glyph unicode="A" horiz-adv-x="1261" d="M10 0l490 1384h260l491 -1384h-239l-113 338h-539l-112 -338h-238zM420 524h422l-211 631z" />
<glyph unicode="B" horiz-adv-x="1204" d="M152 0v1384h456q226 0 334.5 -94.5t108.5 -263.5q0 -117 -54.5 -192.5t-150.5 -104.5q117 -24 195.5 -111t78.5 -231q0 -204 -129.5 -295.5t-372.5 -91.5h-466zM375 184h231q150 0 217.5 52.5t67.5 164.5q0 222 -285 222h-231v-439zM375 807h205q129 0 184 52.5t55 150.5 q0 93 -56 141.5t-185 48.5h-203v-393z" />
<glyph unicode="C" horiz-adv-x="1204" d="M94 692q0 340 148.5 526.5t439.5 186.5q162 0 279.5 -67.5t183.5 -184.5l-172 -111q-40 76 -115 123t-168 47q-126 0 -208.5 -66t-119 -180t-36.5 -276q0 -244 89 -381t275 -137q93 0 168 47t115 123l172 -111q-66 -117 -183.5 -184t-279.5 -67q-291 0 -439.5 186.5 t-148.5 525.5z" />
<glyph unicode="D" horiz-adv-x="1335" d="M152 0v1384h413q356 0 515 -164t159 -528q0 -362 -159 -527t-515 -165h-413zM375 184h178q259 0 358 112t99 396q0 141 -22.5 234.5t-76 156.5t-140 90t-218.5 27h-178v-1016z" />
<glyph unicode="E" horiz-adv-x="1110" d="M152 0v1384h864v-184h-641v-405h561v-185h-561v-426h647v-184h-870z" />
<glyph unicode="F" horiz-adv-x="1064" d="M152 0v1384h839v-184h-616v-444h524v-185h-524v-571h-223z" />
<glyph unicode="G" horiz-adv-x="1318" d="M94 692q0 352 156.5 532.5t468.5 180.5q157 0 272.5 -65t177.5 -179l-168 -110q-48 79 -117 120t-173 41q-204 0 -294.5 -131t-90.5 -389q0 -269 87.5 -395.5t278.5 -126.5q87 0 151.5 30t102 84.5t55 123t17.5 153.5h-318v187h535q10 -65 10 -119q0 -109 -19 -203.5 t-61 -177.5t-105.5 -142t-157 -92.5t-210.5 -33.5q-293 0 -445.5 180t-152.5 532z" />
<glyph unicode="H" horiz-adv-x="1388" d="M152 0v1384h223v-571h641v571h221v-1384h-221v629h-641v-629h-223z" />
<glyph unicode="I" horiz-adv-x="528" d="M152 0v1384h223v-1384h-223z" />
<glyph unicode="J" horiz-adv-x="993" d="M37 199l160 104q35 -67 83.5 -99t125.5 -32q117 0 175 71.5t58 235.5v905h211v-915q0 -244 -116.5 -366.5t-327.5 -122.5q-134 0 -227.5 59t-141.5 160z" />
<glyph unicode="K" horiz-adv-x="1251" d="M152 0v1384h223v-647l583 647h271l-510 -571l510 -813h-264l-398 653l-192 -198v-455h-223z" />
<glyph unicode="L" horiz-adv-x="980" d="M152 0v1384h223v-1200h571v-184h-794z" />
<glyph unicode="M" horiz-adv-x="1755" d="M84 0l176 1384h299l322 -1108l329 1108h295l164 -1384h-213l-121 1124l-338 -1124h-243l-324 1118l-133 -1118h-213z" />
<glyph unicode="N" horiz-adv-x="1390" d="M152 0v1384h237l629 -1019v1019h221v-1384h-231l-633 1030l2 -1030h-225z" />
<glyph unicode="O" horiz-adv-x="1345" d="M94 690q0 126 19.5 232t63 196.5t110 153t165 98t222.5 35.5t221.5 -35.5t163.5 -98t109 -153t62 -196.5t19 -232q0 -158 -32 -284.5t-99.5 -223.5t-180.5 -149.5t-267 -52.5q-123 0 -220.5 35t-164 97t-109.5 151.5t-62.5 195t-19.5 231.5zM326 690q0 -96 9.5 -172 t34 -142.5t63 -110t98.5 -68.5t139 -25q81 0 141.5 25t100 68.5t64 110t34.5 142.5t10 172q0 122 -17 213t-55.5 163t-107 109t-166.5 37q-78 0 -138 -25t-99.5 -69.5t-64.5 -110.5t-35.5 -143.5t-10.5 -173.5z" />
<glyph unicode="P" horiz-adv-x="1167" d="M152 0v1384h462q238 0 361 -112t123 -318q0 -204 -123 -317t-361 -113h-239v-524h-223zM375 709h225q266 0 266 245q0 246 -266 246h-225v-491z" />
<glyph unicode="Q" horiz-adv-x="1345" d="M94 690q0 126 19.5 232t63 196.5t110 153t165 98t222.5 35.5t221.5 -35.5t163.5 -98t109 -153t62 -196.5t19 -232q0 -256 -84 -428l158 -147l-123 -138l-143 138q-141 -135 -387 -135q-123 0 -220.5 35t-164 97t-109.5 151.5t-62.5 195t-19.5 231.5zM326 690 q0 -96 9.5 -172t34 -142.5t63 -110t98.5 -68.5t139 -25q153 0 235 88l-321 311l116 129l291 -274q29 110 29 264q0 122 -17 213t-55.5 163t-107 109t-166.5 37q-78 0 -138 -25t-99.5 -69.5t-64.5 -110.5t-35.5 -143.5t-10.5 -173.5z" />
<glyph unicode="R" horiz-adv-x="1226" d="M152 0v1384h501q239 0 364.5 -104.5t125.5 -292.5q0 -149 -88.5 -249t-251.5 -132l371 -606h-252l-347 586h-200l2 -586h-225zM375 770h258q152 0 215 54.5t63 162.5q0 104 -63.5 158.5t-214.5 54.5h-258v-430z" />
<glyph unicode="S" horiz-adv-x="1114" d="M61 236l158 122q21 -42 44 -72t60.5 -58.5t93.5 -43t130 -14.5q122 0 188 56t66 151q0 75 -46 119.5t-137 72.5l-180 54q-323 100 -323 370q0 82 27.5 154.5t82 131t145.5 92.5t208 34q161 0 270 -57.5t168 -147.5l-158 -123q-88 135 -280 135q-112 0 -172 -56.5 t-60 -149.5q0 -73 40.5 -117t129.5 -72l180 -53q171 -53 252.5 -143t81.5 -228q0 -191 -132 -303.5t-351 -112.5q-358 0 -486 259z" />
<glyph unicode="T" horiz-adv-x="1112" d="M59 1200v184h992v-184h-383v-1200h-224v1200h-385z" />
<glyph unicode="U" horiz-adv-x="1325" d="M141 522v862h224v-860q0 -183 73.5 -267.5t225.5 -84.5t225.5 84.5t73.5 267.5v860h223v-862q0 -142 -38 -247.5t-109 -169t-164.5 -94.5t-210.5 -31q-244 0 -383.5 132t-139.5 410z" />
<glyph unicode="V" horiz-adv-x="1230" d="M23 1384h233l360 -1155l357 1155h235l-452 -1384h-283z" />
<glyph unicode="W" horiz-adv-x="1982" d="M33 1384h231l295 -1132l305 1132h254l307 -1132l293 1132h232l-379 -1384h-275l-305 1081l-305 -1081h-272z" />
<glyph unicode="X" horiz-adv-x="1196" d="M25 0l426 715l-412 669h254l303 -522l307 522h252l-410 -669l426 -715h-253l-322 553l-320 -553h-251z" />
<glyph unicode="Y" horiz-adv-x="1193" d="M14 1384h246l338 -636l334 636h248l-471 -839v-545h-224v545z" />
<glyph unicode="Z" horiz-adv-x="1062" d="M68 0v160l641 1040h-609v184h871v-163l-641 -1037h659v-184h-921z" />
<glyph unicode="[" horiz-adv-x="643" d="M129 -442v1855h463v-174h-250v-1507h250v-174h-463z" />
<glyph unicode="\" horiz-adv-x="751" d="M55 1384h217l424 -1384h-211z" />
<glyph unicode="]" horiz-adv-x="643" d="M51 -268h250v1507h-250v174h463v-1855h-463v174z" />
<glyph unicode="^" horiz-adv-x="1146" d="M61 922l512 510l510 -510l-137 -140l-371 371l-372 -371z" />
<glyph unicode="_" horiz-adv-x="1003" d="M92 -63h819v-140h-819v140z" />
<glyph unicode="`" horiz-adv-x="1228" d="M432 1425h213l152 -327h-187z" />
<glyph unicode="a" d="M70 246q0 274 442 307l131 14v74q0 74 -39 110.5t-133 36.5q-84 0 -127 -27t-43 -73v-45h-180q-4 40 -4 64q0 111 96.5 179t269.5 68q175 0 270 -77.5t95 -233.5v-643h-193v113q-118 -136 -305 -136q-128 0 -204 72.5t-76 196.5zM281 258q0 -119 139 -119q64 0 123 27.5 t100 69.5v200l-129 -18q-116 -16 -174.5 -54t-58.5 -106z" />
<glyph unicode="b" horiz-adv-x="1058" d="M125 0v1413h205v-557q86 98 248 98q200 0 299.5 -127t99.5 -358q0 -227 -102.5 -359.5t-296.5 -132.5q-182 0 -285 107l-62 -84h-106zM330 266q30 -41 82 -69.5t118 -28.5q68 0 115 22t73 64.5t37 94.5t11 120q0 140 -53.5 217.5t-182.5 77.5q-130 0 -200 -88v-410z" />
<glyph unicode="c" horiz-adv-x="917" d="M80 467q0 102 25 188.5t74.5 154.5t132.5 106t192 38q126 0 218.5 -50.5t143.5 -147.5l-147 -105q-68 121 -201 121q-118 0 -172.5 -82t-54.5 -223t54.5 -223t172.5 -82q134 0 203 119l145 -105q-49 -97 -142.5 -148t-219.5 -51q-88 0 -159 25t-120 69.5t-82 106.5 t-48 134t-15 155z" />
<glyph unicode="d" horiz-adv-x="1058" d="M84 469q0 230 99.5 357.5t291.5 127.5q85 0 150.5 -28t103.5 -70v557h207v-1413h-197v82q-45 -46 -113.5 -75.5t-152.5 -29.5q-191 0 -290 129t-99 363zM293 469q0 -301 231 -301q136 0 205 88v420q-75 88 -203 88q-126 0 -179.5 -77.5t-53.5 -217.5z" />
<glyph unicode="e" d="M80 467q0 102 26.5 189.5t78 154.5t133.5 105t186 38q80 0 145 -22.5t108.5 -60t73.5 -89t43 -108.5t13 -119q0 -95 -15 -154h-583q3 -116 61.5 -180.5t173.5 -64.5q139 0 244 92l98 -135q-53 -58 -145 -97t-197 -39q-225 0 -334.5 132.5t-109.5 357.5zM289 553h403 q2 12 2 35q0 92 -52 145t-138 53q-104 0 -156.5 -63.5t-58.5 -169.5z" />
<glyph unicode="f" horiz-adv-x="690" d="M43 758v155l154 21v145q0 161 78.5 247.5t238.5 86.5h121v-176h-109q-68 0 -96.5 -40.5t-28.5 -119.5v-143h258v-176h-258v-758h-204v758h-154z" />
<glyph unicode="g" horiz-adv-x="1054" d="M84 469q0 231 101 358t294 127q160 0 256 -104v84h195v-997q0 -157 -110.5 -257t-297.5 -100q-181 0 -279 83t-98 212h183q0 -51 52 -90t142 -39q97 0 149 48.5t52 131.5v160q-42 -49 -108 -79t-136 -30q-196 0 -295.5 128.5t-99.5 363.5zM291 469q0 -301 231 -301 q62 0 115.5 25t85.5 65v420q-27 34 -78 60t-123 26q-126 0 -178.5 -77.5t-52.5 -217.5z" />
<glyph unicode="h" horiz-adv-x="1060" d="M125 0v1413h205v-575q108 116 293 116q323 0 323 -364v-590h-207v569q0 100 -43 147.5t-147 47.5q-66 0 -124.5 -25t-94.5 -63v-676h-205z" />
<glyph unicode="i" horiz-adv-x="458" d="M94 1264q0 65 36.5 98t96.5 33q54 0 92.5 -34t38.5 -97q0 -64 -38 -96.5t-93 -32.5q-61 0 -97 31.5t-36 97.5zM127 0v934h205v-934h-205z" />
<glyph unicode="j" horiz-adv-x="458" d="M-43 -328q93 52 131.5 117t38.5 166v979h207v-940q0 -166 -62 -278t-196 -179zM94 1264q0 65 36.5 98t96.5 33q55 0 94 -33.5t39 -97.5q0 -65 -38.5 -97t-94.5 -32q-61 0 -97 31.5t-36 97.5z" />
<glyph unicode="k" horiz-adv-x="989" d="M125 0v1413h205v-864l391 385h254l-365 -354l355 -580h-232l-268 436l-135 -131v-305h-205z" />
<glyph unicode="l" horiz-adv-x="499" d="M119 256v1157h205v-1128q0 -55 19 -79t67 -24h49v-190h-111q-125 0 -177 68.5t-52 195.5z" />
<glyph unicode="m" horiz-adv-x="1656" d="M125 0v934h199v-109q108 129 268 129q108 0 175.5 -36t115.5 -105q51 62 133.5 101.5t191.5 39.5q171 0 251.5 -88t80.5 -260v-606h-207v590q0 89 -41.5 131.5t-138.5 42.5q-132 0 -213 -88v-676h-207v662q-57 102 -192 102q-116 0 -211 -88v-676h-205z" />
<glyph unicode="n" horiz-adv-x="1060" d="M125 0v934h199v-109q42 58 118.5 93.5t178.5 35.5q323 0 323 -364v-590h-205v569q0 100 -44 147.5t-148 47.5q-65 0 -124 -25.5t-93 -62.5v-676h-205z" />
<glyph unicode="o" horiz-adv-x="1024" d="M80 465q0 108 26 196t78 154t136 102.5t194 36.5q108 0 191 -36t134 -102t77 -153.5t26 -193.5q0 -109 -25.5 -197.5t-77.5 -155t-136.5 -103t-196.5 -36.5q-106 0 -188 37t-133.5 103t-78 154t-26.5 194zM291 469q0 -305 219 -305q223 0 223 301q0 303 -223 303 q-219 0 -219 -299z" />
<glyph unicode="p" horiz-adv-x="1064" d="M125 -442v1376h197v-84q45 46 113.5 75t154.5 29q191 0 291 -129t100 -362q0 -230 -100 -358t-293 -128q-87 0 -153.5 28.5t-104.5 70.5v-518h-205zM330 256q75 -88 207 -88q127 0 181 77.5t54 217.5q0 301 -235 301q-70 0 -123.5 -24.5t-83.5 -63.5v-420z" />
<glyph unicode="q" horiz-adv-x="1050" d="M82 463q0 227 101.5 359t293.5 132q179 0 281 -106l61 86h107v-1376h-205v518q-87 -99 -244 -99q-198 0 -296.5 127t-98.5 359zM291 463q0 -140 52.5 -217.5t178.5 -77.5q129 0 199 88v410q-30 40 -82 69t-117 29q-66 0 -112.5 -22t-71.5 -64.5t-36 -94.5t-11 -120z" />
<glyph unicode="r" horiz-adv-x="716" d="M125 0v934h197v-152h2q43 79 103 125.5t153 46.5q60 0 110 -12l-18 -219q-62 18 -140 18q-136 0 -202 -143v-598h-205z" />
<glyph unicode="s" horiz-adv-x="886" d="M59 135l121 125q49 -56 107.5 -90.5t146.5 -34.5q79 0 126.5 30t47.5 87q0 78 -119 106l-161 41q-117 29 -177.5 97t-60.5 166q0 53 20.5 103t62 93.5t115 69.5t169.5 26q221 0 342 -135l-119 -123q-90 101 -229 101q-77 0 -115.5 -33t-38.5 -84q0 -85 100 -107l158 -36 q262 -60 262 -269q0 -59 -22 -110t-66.5 -92.5t-121.5 -65t-179 -23.5q-135 0 -226 46t-143 112z" />
<glyph unicode="t" horiz-adv-x="706" d="M37 758v155l172 21v231l207 33v-264h229v-176h-229v-469q0 -121 112 -121q55 0 121 25l10 -181q-91 -35 -194 -35q-131 0 -193.5 76t-62.5 209v496h-172z" />
<glyph unicode="u" horiz-adv-x="1060" d="M117 344v590h205v-569q0 -100 44 -147.5t148 -47.5q65 0 124 25.5t93 62.5v676h205v-934h-199v109q-42 -58 -118.5 -93.5t-178.5 -35.5q-323 0 -323 364z" />
<glyph unicode="v" horiz-adv-x="993" d="M29 934h221l248 -733l245 733h222l-342 -934h-248z" />
<glyph unicode="w" horiz-adv-x="1562" d="M35 934h215l213 -713l219 713h199l219 -713l211 713h215l-295 -934h-227l-224 672l-221 -672h-227z" />
<glyph unicode="x" horiz-adv-x="956" d="M35 0l313 469l-313 465h237l207 -326l205 326h238l-314 -467l314 -467h-238l-205 328l-207 -328h-237z" />
<glyph unicode="y" horiz-adv-x="993" d="M18 934h234l258 -645l238 645h223l-559 -1376h-211l207 491z" />
<glyph unicode="z" horiz-adv-x="847" d="M72 0v139l438 619h-418v176h674v-139l-434 -619h436v-176h-696z" />
<glyph unicode="{" horiz-adv-x="626" d="M27 406v159q97 0 142.5 38.5t45.5 133.5v389q0 157 80.5 222t259.5 65v-160q-67 0 -97 -28t-30 -99v-409q0 -212 -162 -232q70 -9 116 -62t46 -167v-412q0 -72 29.5 -99.5t97.5 -27.5v-159q-179 0 -259.5 63t-80.5 223v394q0 91 -45.5 129.5t-142.5 38.5z" />
<glyph unicode="|" horiz-adv-x="397" d="M129 -442v1855h141v-1855h-141z" />
<glyph unicode="}" horiz-adv-x="626" d="M72 -283q68 0 97.5 27.5t29.5 99.5v412q0 114 45.5 167t115.5 62q-161 20 -161 232v409q0 71 -30 99t-97 28v160q179 0 259.5 -65t80.5 -222v-389q0 -95 45.5 -133.5t142.5 -38.5v-159q-97 0 -142.5 -38.5t-45.5 -129.5v-394q0 -160 -80.5 -223t-259.5 -63v159z" />
<glyph unicode="~" horiz-adv-x="1146" d="M203 446l6 203q80 -69 160 -69q43 0 91.5 21.5t87.5 48t96 48t114 21.5q96 0 186 -64l-10 -198q-94 69 -176 69q-39 0 -88.5 -21.5t-90 -48t-96.5 -48t-106 -21.5q-51 0 -98 18t-76 41z" />
<glyph unicode="&#xa1;" horiz-adv-x="473" d="M92 817q0 59 41.5 98t102.5 39t102 -39t41 -98q0 -60 -40.5 -99.5t-102.5 -39.5t-103 39.5t-41 99.5zM111 -442l41 936h172l36 -936h-249z" />
<glyph unicode="&#xa2;" horiz-adv-x="972" d="M94 467q0 82 15 153t48 133t81.5 106.5t120 69.5t159.5 25q20 0 60 -4l36 156l115 -27l-39 -155q128 -48 189 -168l-146 -105q-41 64 -86 90l-141 -579h26q132 0 201 119l146 -105q-49 -97 -142 -148t-219 -51q-15 0 -55 5l-31 -127l-113 26l29 125q-128 49 -191 171 t-63 290zM303 467q0 -193 94 -264l138 569h-3q-119 0 -174 -82t-55 -223z" />
<glyph unicode="&#xa3;" horiz-adv-x="1150" d="M74 541v139h131v227q0 104 24 190.5t74.5 157.5t138.5 110.5t207 39.5q143 0 247 -51.5t187 -147.5l-137 -141q-65 75 -133 109t-156 34q-124 0 -181.5 -80.5t-57.5 -220.5v-227h368v-139h-368v-365h575v-176h-788v541h-131z" />
<glyph unicode="&#xa4;" horiz-adv-x="1122" d="M94 881l144 139l153 -156q65 39 170 39q109 0 174 -41l152 154l135 -133l-160 -164q25 -77 25 -158q0 -87 -25 -160l166 -170l-143 -143l-162 160q-75 -35 -166 -35q-99 0 -168 37l-151 -152l-136 133l156 162q-27 71 -27 166q0 82 25 152zM412 561q0 -162 147 -162 q76 0 113 42t37 118q0 160 -150 160q-147 0 -147 -158z" />
<glyph unicode="&#xa5;" horiz-adv-x="1224" d="M59 1384h242l307 -624l314 624h243l-266 -489h186v-139h-264l-73 -138h337v-141h-372v-477h-213v477h-363v141h330l-72 138h-258v139h182z" />
<glyph unicode="&#xa6;" horiz-adv-x="413" d="M135 348h144v-790h-144v790zM135 627v786h144v-786h-144z" />
<glyph unicode="&#xa7;" horiz-adv-x="1138" d="M82 -35l123 131q135 -164 366 -164q109 0 173.5 32t64.5 97q0 22 -13 42.5t-29 34t-47 29t-49 22.5t-53 20l-204 74q-145 54 -219 128t-74 185q0 71 33.5 137.5t99.5 116.5q-131 83 -131 225q0 59 27.5 115.5t80.5 105.5t143 79t204 30q304 0 448 -184l-133 -131 q-125 145 -332 145q-92 0 -154.5 -37.5t-62.5 -93.5q0 -28 13.5 -50.5t44 -41t63 -32t86.5 -32.5l168 -59q160 -54 238.5 -132t78.5 -198q0 -68 -35 -133t-102 -113q133 -82 133 -223q0 -66 -28 -122.5t-83 -102t-147.5 -72t-212.5 -26.5q-166 0 -290 53t-189 145zM334 637 q0 -60 49.5 -100.5t157.5 -79.5l192 -70q88 61 88 137q0 67 -51 109.5t-152 75.5l-200 67q-38 -25 -61 -63t-23 -76z" />
<glyph unicode="&#xa8;" horiz-adv-x="1228" d="M289 1243q0 65 35.5 98t95.5 33q54 0 92.5 -34t38.5 -97q0 -64 -38 -96.5t-93 -32.5q-60 0 -95.5 31.5t-35.5 97.5zM676 1243q0 65 36.5 98t96.5 33q54 0 92.5 -34t38.5 -97q0 -64 -38 -96.5t-93 -32.5q-61 0 -97 31.5t-36 97.5z" />
<glyph unicode="&#xa9;" horiz-adv-x="1679" d="M92 686q0 217 98 388.5t268.5 265.5t381.5 94q159 0 297.5 -55t237.5 -152.5t155.5 -237.5t56.5 -303q0 -160 -56.5 -299.5t-155.5 -237.5t-237.5 -154t-297.5 -56q-158 0 -296.5 56t-237.5 154t-156.5 237.5t-57.5 299.5zM252 686q0 -266 164.5 -430t423.5 -164 q260 0 423.5 163.5t163.5 430.5q0 269 -163.5 431.5t-423.5 162.5q-259 0 -423.5 -162.5t-164.5 -431.5zM449 686q0 187 109 298.5t273 111.5q108 0 181.5 -38t138.5 -104l-117 -112q-33 32 -54 48.5t-58 31t-80 14.5q-102 0 -156.5 -67t-54.5 -185q0 -120 52 -186t157 -66 q121 0 196 103l119 -117q-126 -146 -324 -146q-167 0 -274.5 111.5t-107.5 302.5z" />
<glyph unicode="&#xaa;" horiz-adv-x="724" d="M90 868q0 177 291 197l78 6v43q0 82 -105 82q-100 0 -100 -55v-27h-131q-2 14 -2 43q0 68 63.5 110t175.5 42q117 0 180.5 -48.5t63.5 -146.5v-397h-139v65q-76 -80 -193 -80q-87 0 -134.5 44.5t-47.5 121.5zM238 879q0 -66 79 -66q87 0 142 61v109l-74 -12 q-147 -19 -147 -92z" />
<glyph unicode="&#xab;" horiz-adv-x="1075" d="M49 553l389 457l131 -95l-272 -364l274 -363l-133 -92zM469 553l389 457l131 -95l-272 -364l274 -363l-133 -92z" />
<glyph unicode="&#xac;" horiz-adv-x="1146" d="M72 633v178h977v-567h-197v389h-780z" />
<glyph unicode="&#xad;" horiz-adv-x="796" d="M119 465v176h559v-176h-559z" />
<glyph unicode="&#xae;" horiz-adv-x="1679" d="M92 686q0 217 98 388.5t268.5 265.5t381.5 94q159 0 297.5 -55t237.5 -152.5t155.5 -237.5t56.5 -303q0 -160 -56.5 -299.5t-155.5 -237.5t-237.5 -154t-297.5 -56q-158 0 -296.5 56t-237.5 154t-156.5 237.5t-57.5 299.5zM252 686q0 -266 164.5 -430t423.5 -164 q260 0 423.5 163.5t163.5 430.5q0 269 -163.5 431.5t-423.5 162.5q-259 0 -423.5 -162.5t-164.5 -431.5zM535 279v808h305q161 0 236 -59t75 -174q0 -85 -54 -144t-151 -79l223 -352h-172l-204 333h-105v-333h-153zM688 733h150q83 0 122 35t39 82q0 48 -36 82.5t-115 34.5 h-160v-234z" />
<glyph unicode="&#xaf;" horiz-adv-x="1228" d="M317 1157v168h594v-168h-594z" />
<glyph unicode="&#xb0;" horiz-adv-x="714" d="M78 1118q0 121 74 204t202 83q132 0 208.5 -83t76.5 -204q0 -118 -77 -200t-208 -82q-128 0 -202 82t-74 200zM203 1118q0 -68 40.5 -115t110.5 -47q73 0 114.5 47t41.5 115q0 70 -41.5 118t-114.5 48q-70 0 -110.5 -48t-40.5 -118z" />
<glyph unicode="&#xb1;" horiz-adv-x="1146" d="M84 61v177h977v-177h-977zM84 743v177h387v403h197v-403h393v-177h-393v-327h-197v327h-387z" />
<glyph unicode="&#xb2;" horiz-adv-x="649" d="M55 1384q0 111 67 175.5t195 64.5q117 0 189 -63t72 -162q0 -68 -42 -130.5t-120 -138.5l-140 -129h308v-120h-514v102l241 238q107 99 107 178q0 45 -27.5 73.5t-73.5 28.5q-106 0 -106 -117h-156z" />
<glyph unicode="&#xb3;" horiz-adv-x="675" d="M55 1073h154q0 -38 31.5 -60t87.5 -22q53 0 87 25t34 67q0 50 -38.5 78.5t-109.5 28.5h-76v121h76q64 0 99.5 24.5t35.5 73.5q0 42 -28.5 66t-79.5 24t-79 -22.5t-28 -57.5h-158q0 90 66.5 146.5t198.5 56.5q123 0 196.5 -56.5t73.5 -148.5q0 -61 -38.5 -106.5 t-98.5 -59.5q64 -14 105.5 -61.5t41.5 -114.5q0 -93 -76.5 -151t-203.5 -58q-137 0 -205 56.5t-68 150.5z" />
<glyph unicode="&#xb4;" horiz-adv-x="1228" d="M432 1098l152 327h213l-179 -327h-186z" />
<glyph unicode="&#xb5;" horiz-adv-x="1064" d="M123 -442v1376h207v-588q3 -91 46.5 -133.5t143.5 -42.5q65 0 124 25.5t93 62.5v676h207v-934h-201v109q-40 -58 -117 -93.5t-180 -35.5q-55 0 -116 14v-436h-207z" />
<glyph unicode="&#xb6;" horiz-adv-x="1060" d="M61 623q0 146 88 228.5t267 82.5h229v-985h-184v368q-206 0 -303 75t-97 231zM596 -334q86 48 124 109.5t38 161.5v997h186v-959q0 -74 -9 -132t-33.5 -117.5t-73 -107.5t-121.5 -83z" />
<glyph unicode="&#xb7;" horiz-adv-x="512" d="M104 557q0 65 43.5 107.5t110.5 42.5q65 0 108.5 -43t43.5 -107q0 -61 -43.5 -102t-108.5 -41q-67 0 -110.5 40.5t-43.5 102.5z" />
<glyph unicode="&#xb8;" horiz-adv-x="1228" d="M428 -260q36 -27 83 -44.5t89 -17.5q37 0 56.5 15t19.5 39q0 57 -101 57h-79l-11 12l74 213l129 -14l-41 -102q86 0 139.5 -39.5t53.5 -126.5q0 -77 -61 -125.5t-163 -48.5q-99 0 -188 47v135z" />
<glyph unicode="&#xb9;" horiz-adv-x="501" d="M6 1511l262 101h135v-733h-155v591l-203 -73z" />
<glyph unicode="&#xba;" horiz-adv-x="733" d="M84 1006q0 137 70.5 220t214.5 83q142 0 211 -82.5t69 -218.5q0 -140 -69.5 -223t-214.5 -83q-141 0 -211 83.5t-70 220.5zM236 1010q0 -181 131 -181q67 0 99 47t32 130q0 176 -131 176t-131 -172z" />
<glyph unicode="&#xbb;" horiz-adv-x="1075" d="M84 188l274 363l-272 364l131 95l389 -457l-389 -457zM504 188l274 363l-272 364l131 95l389 -457l-389 -457z" />
<glyph unicode="&#xbc;" horiz-adv-x="1490" d="M57 1284l262 100h136v-733h-156v592l-203 -74zM252 0l823 1384h174l-829 -1384h-168zM803 141v107l356 485h164v-471h92v-121h-92v-141h-156v141h-364zM965 262h202v275z" />
<glyph unicode="&#xbd;" horiz-adv-x="1560" d="M57 1284l262 100h136v-733h-156v592l-203 -74zM252 0l823 1384h174l-829 -1384h-168zM944 504q0 111 66.5 175t195.5 64q117 0 188.5 -63t71.5 -162q0 -68 -41.5 -130t-119.5 -138l-140 -129h308v-121h-515v102l242 238q107 99 107 178q0 45 -27.5 74t-73.5 29 q-106 0 -106 -117h-156z" />
<glyph unicode="&#xbe;" horiz-adv-x="1556" d="M82 846h154q0 -38 31.5 -60t86.5 -22q53 0 87 25t34 67q0 50 -38 78.5t-109 28.5h-76v120h76q64 0 99.5 25t35.5 74q0 41 -29 65.5t-80 24.5t-78.5 -22.5t-27.5 -57.5h-158q0 90 66 146.5t198 56.5q123 0 197 -56.5t74 -148.5q0 -60 -39 -106t-99 -60q64 -14 106 -61.5 t42 -114.5q0 -93 -77 -151t-204 -58q-137 0 -204.5 56.5t-67.5 150.5zM326 0l823 1384h174l-829 -1384h-168zM874 141v107l357 485h164v-471h92v-121h-92v-141h-156v141h-365zM1036 262h203v275z" />
<glyph unicode="&#xbf;" horiz-adv-x="907" d="M66 -109q0 58 17 110t44.5 91.5t60.5 76.5t66.5 72.5t61 72.5t44.5 83t17 97h211q0 -87 -32.5 -161.5t-78.5 -126.5t-92 -99t-78.5 -100.5t-32.5 -108.5q0 -71 50.5 -120.5t138.5 -49.5q87 0 136.5 44.5t49.5 112.5l201 -18q0 -143 -94 -236.5t-279 -93.5 q-193 0 -302 100t-109 254zM340 817q0 60 40.5 98.5t102.5 38.5q63 0 103.5 -38.5t40.5 -98.5t-40.5 -99.5t-103.5 -39.5q-62 0 -102.5 39.5t-40.5 99.5z" />
<glyph unicode="&#xc0;" horiz-adv-x="1261" d="M10 0l490 1384h260l491 -1384h-239l-113 338h-539l-112 -338h-238zM360 1843h213l152 -327h-186zM420 524h422l-211 631z" />
<glyph unicode="&#xc1;" horiz-adv-x="1261" d="M10 0l490 1384h260l491 -1384h-239l-113 338h-539l-112 -338h-238zM420 524h422l-211 631zM532 1516l152 327h213l-178 -327h-187z" />
<glyph unicode="&#xc2;" horiz-adv-x="1261" d="M10 0l490 1384h260l491 -1384h-239l-113 338h-539l-112 -338h-238zM322 1516l208 327h205l207 -327h-186l-123 194l-125 -194h-186zM420 524h422l-211 631z" />
<glyph unicode="&#xc3;" horiz-adv-x="1261" d="M10 0l490 1384h260l491 -1384h-239l-113 338h-539l-112 -338h-238zM336 1597l8 156q51 -51 133 -51q42 0 89.5 20.5t101.5 41t112 20.5q78 0 150 -47l-8 -156q-71 51 -142 51q-50 0 -146 -41t-157 -41q-43 0 -81.5 14t-59.5 33zM420 524h422l-211 631z" />
<glyph unicode="&#xc4;" horiz-adv-x="1261" d="M10 0l490 1384h260l491 -1384h-239l-113 338h-539l-112 -338h-238zM307 1661q0 65 35.5 98t95.5 33q54 0 92.5 -34t38.5 -97q0 -64 -38 -96.5t-93 -32.5q-60 0 -95.5 31.5t-35.5 97.5zM420 524h422l-211 631zM694 1661q0 65 36.5 98t96.5 33q54 0 92.5 -34t38.5 -97 q0 -64 -38 -96.5t-93 -32.5q-61 0 -97 31.5t-36 97.5z" />
<glyph unicode="&#xc5;" horiz-adv-x="1261" d="M10 0l490 1384h260l491 -1384h-239l-113 338h-539l-112 -338h-238zM414 1661q0 86 57.5 143.5t157.5 57.5q104 0 162.5 -57.5t58.5 -143.5q0 -82 -59 -140.5t-162 -58.5q-99 0 -157 59t-58 140zM420 524h422l-211 631zM535 1661q0 -38 25.5 -64t68.5 -26q45 0 70.5 25.5 t25.5 64.5t-25.5 64.5t-70.5 25.5q-43 0 -68.5 -26t-25.5 -64z" />
<glyph unicode="&#xc6;" horiz-adv-x="1931" d="M-10 0l913 1384h934v-184h-641v-405h561v-185h-561v-434h647v-176h-870v340h-522l-222 -340h-239zM561 520h412v651z" />
<glyph unicode="&#xc7;" horiz-adv-x="1204" d="M94 692q0 340 148.5 526.5t439.5 186.5q162 0 279.5 -67.5t183.5 -184.5l-172 -111q-40 76 -115 123t-168 47q-126 0 -208.5 -66t-119 -180t-36.5 -276q0 -244 89 -381t275 -137q93 0 168 47t115 123l172 -111q-61 -108 -167.5 -174t-252.5 -75l-33 -84q86 0 139.5 -39.5 t53.5 -126.5q0 -77 -60.5 -125.5t-162.5 -48.5q-100 0 -189 47v135q36 -27 83 -44.5t89 -17.5q37 0 56.5 15t19.5 39q0 57 -100 57h-80l-11 12l64 183q-248 27 -374 210.5t-126 497.5z" />
<glyph unicode="&#xc8;" horiz-adv-x="1110" d="M152 0v1384h864v-184h-641v-405h561v-185h-561v-426h647v-184h-870zM332 1843h213l151 -327h-186z" />
<glyph unicode="&#xc9;" horiz-adv-x="1110" d="M152 0v1384h864v-184h-641v-405h561v-185h-561v-426h647v-184h-870zM487 1516l152 327h213l-178 -327h-187z" />
<glyph unicode="&#xca;" horiz-adv-x="1110" d="M152 0v1384h864v-184h-641v-405h561v-185h-561v-426h647v-184h-870zM276 1516l209 327h205l207 -327h-186l-123 194l-125 -194h-187z" />
<glyph unicode="&#xcb;" horiz-adv-x="1110" d="M152 0v1384h864v-184h-641v-405h561v-185h-561v-426h647v-184h-870zM262 1661q0 65 35.5 98t95.5 33q54 0 92.5 -34t38.5 -97q0 -64 -38 -96.5t-93 -32.5q-60 0 -95.5 31.5t-35.5 97.5zM649 1661q0 65 36.5 98t96.5 33q54 0 92.5 -34t38.5 -97q0 -64 -38 -96.5t-93 -32.5 q-61 0 -97 31.5t-36 97.5z" />
<glyph unicode="&#xcc;" horiz-adv-x="528" d="M-6 1843h213l151 -327h-186zM152 0v1384h223v-1384h-223z" />
<glyph unicode="&#xcd;" horiz-adv-x="528" d="M152 0v1384h223v-1384h-223zM172 1516l152 327h213l-179 -327h-186z" />
<glyph unicode="&#xce;" horiz-adv-x="528" d="M-49 1516l209 327h205l206 -327h-186l-123 194l-125 -194h-186zM152 0v1384h223v-1384h-223z" />
<glyph unicode="&#xcf;" horiz-adv-x="528" d="M-61 1661q0 65 35.5 98t95.5 33q54 0 92.5 -34t38.5 -97q0 -64 -38 -96.5t-93 -32.5q-60 0 -95.5 31.5t-35.5 97.5zM152 0v1384h223v-1384h-223zM326 1661q0 65 36.5 98t96.5 33q54 0 92.5 -34t38.5 -97q0 -64 -38 -96.5t-93 -32.5q-61 0 -97 31.5t-36 97.5z" />
<glyph unicode="&#xd0;" horiz-adv-x="1351" d="M39 631v149h129v604h414q356 0 514.5 -164t158.5 -528q0 -363 -158.5 -527.5t-514.5 -164.5h-414v631h-129zM391 184h178q259 0 358 112t99 396q0 141 -22.5 234.5t-76 156.5t-140 90t-218.5 27h-178v-420h232v-149h-232v-447z" />
<glyph unicode="&#xd1;" horiz-adv-x="1390" d="M152 0v1384h237l629 -1019v1019h221v-1384h-231l-633 1030l2 -1030h-225zM401 1597l9 156q51 -51 133 -51q42 0 89.5 20.5t101.5 41t112 20.5q77 0 149 -47l-8 -156q-71 51 -141 51q-50 0 -146 -41t-157 -41q-43 0 -82.5 14t-59.5 33z" />
<glyph unicode="&#xd2;" horiz-adv-x="1345" d="M94 690q0 126 19.5 232t63 196.5t110 153t165 98t222.5 35.5t221.5 -35.5t163.5 -98t109 -153t62 -196.5t19 -232q0 -158 -32 -284.5t-99.5 -223.5t-180.5 -149.5t-267 -52.5q-123 0 -220.5 35t-164 97t-109.5 151.5t-62.5 195t-19.5 231.5zM326 690q0 -96 9.5 -172 t34 -142.5t63 -110t98.5 -68.5t139 -25q81 0 141.5 25t100 68.5t64 110t34.5 142.5t10 172q0 122 -17 213t-55.5 163t-107 109t-166.5 37q-78 0 -138 -25t-99.5 -69.5t-64.5 -110.5t-35.5 -143.5t-10.5 -173.5zM414 1843h213l151 -327h-186z" />
<glyph unicode="&#xd3;" horiz-adv-x="1345" d="M94 690q0 126 19.5 232t63 196.5t110 153t165 98t222.5 35.5t221.5 -35.5t163.5 -98t109 -153t62 -196.5t19 -232q0 -158 -32 -284.5t-99.5 -223.5t-180.5 -149.5t-267 -52.5q-123 0 -220.5 35t-164 97t-109.5 151.5t-62.5 195t-19.5 231.5zM326 690q0 -96 9.5 -172 t34 -142.5t63 -110t98.5 -68.5t139 -25q81 0 141.5 25t100 68.5t64 110t34.5 142.5t10 172q0 122 -17 213t-55.5 163t-107 109t-166.5 37q-78 0 -138 -25t-99.5 -69.5t-64.5 -110.5t-35.5 -143.5t-10.5 -173.5zM578 1516l151 327h213l-178 -327h-186z" />
<glyph unicode="&#xd4;" horiz-adv-x="1345" d="M94 690q0 126 19.5 232t63 196.5t110 153t165 98t222.5 35.5t221.5 -35.5t163.5 -98t109 -153t62 -196.5t19 -232q0 -158 -32 -284.5t-99.5 -223.5t-180.5 -149.5t-267 -52.5q-123 0 -220.5 35t-164 97t-109.5 151.5t-62.5 195t-19.5 231.5zM326 690q0 -96 9.5 -172 t34 -142.5t63 -110t98.5 -68.5t139 -25q81 0 141.5 25t100 68.5t64 110t34.5 142.5t10 172q0 122 -17 213t-55.5 163t-107 109t-166.5 37q-78 0 -138 -25t-99.5 -69.5t-64.5 -110.5t-35.5 -143.5t-10.5 -173.5zM362 1516l209 327h205l207 -327h-186l-123 194l-125 -194h-187 z" />
<glyph unicode="&#xd5;" horiz-adv-x="1345" d="M94 690q0 126 19.5 232t63 196.5t110 153t165 98t222.5 35.5t221.5 -35.5t163.5 -98t109 -153t62 -196.5t19 -232q0 -158 -32 -284.5t-99.5 -223.5t-180.5 -149.5t-267 -52.5q-123 0 -220.5 35t-164 97t-109.5 151.5t-62.5 195t-19.5 231.5zM326 690q0 -96 9.5 -172 t34 -142.5t63 -110t98.5 -68.5t139 -25q81 0 141.5 25t100 68.5t64 110t34.5 142.5t10 172q0 122 -17 213t-55.5 163t-107 109t-166.5 37q-78 0 -138 -25t-99.5 -69.5t-64.5 -110.5t-35.5 -143.5t-10.5 -173.5zM377 1597l8 156q51 -51 133 -51q42 0 89.5 20.5t101.5 41 t112 20.5q78 0 150 -47l-8 -156q-71 51 -142 51q-50 0 -146 -41t-157 -41q-43 0 -81.5 14t-59.5 33z" />
<glyph unicode="&#xd6;" horiz-adv-x="1345" d="M94 690q0 126 19.5 232t63 196.5t110 153t165 98t222.5 35.5t221.5 -35.5t163.5 -98t109 -153t62 -196.5t19 -232q0 -158 -32 -284.5t-99.5 -223.5t-180.5 -149.5t-267 -52.5q-123 0 -220.5 35t-164 97t-109.5 151.5t-62.5 195t-19.5 231.5zM326 690q0 -96 9.5 -172 t34 -142.5t63 -110t98.5 -68.5t139 -25q81 0 141.5 25t100 68.5t64 110t34.5 142.5t10 172q0 122 -17 213t-55.5 163t-107 109t-166.5 37q-78 0 -138 -25t-99.5 -69.5t-64.5 -110.5t-35.5 -143.5t-10.5 -173.5zM348 1661q0 65 35.5 98t95.5 33q54 0 92.5 -34t38.5 -97 q0 -64 -38 -96.5t-93 -32.5q-60 0 -95.5 31.5t-35.5 97.5zM735 1661q0 65 36.5 98t96.5 33q54 0 92.5 -34t38.5 -97q0 -64 -38 -96.5t-93 -32.5q-61 0 -97 31.5t-36 97.5z" />
<glyph unicode="&#xd7;" horiz-adv-x="1146" d="M113 872l135 140l327 -328l322 322l131 -129l-323 -322l327 -328l-137 -137l-326 328l-319 -320l-129 131l317 318z" />
<glyph unicode="&#xd8;" horiz-adv-x="1349" d="M59 0l154 201q-117 178 -117 489q0 126 19.5 232t63 196.5t110 153t165 98t222.5 35.5q227 0 364 -115l72 94h191l-162 -213q110 -176 110 -481q0 -158 -32 -284.5t-99.5 -223.5t-180.5 -149.5t-267 -52.5q-223 0 -359 108l-67 -88h-187zM328 690q0 -182 34 -291l549 721 q-83 92 -235 92q-78 0 -138 -25t-99.5 -69.5t-64.5 -110.5t-35.5 -143.5t-10.5 -173.5zM442 256q81 -84 230 -84q81 0 141.5 25t100 68.5t64 110t34.5 142.5t10 172q0 168 -33 283z" />
<glyph unicode="&#xd9;" horiz-adv-x="1325" d="M141 522v862h224v-860q0 -183 73.5 -267.5t225.5 -84.5t225.5 84.5t73.5 267.5v860h223v-862q0 -142 -38 -247.5t-109 -169t-164.5 -94.5t-210.5 -31q-244 0 -383.5 132t-139.5 410zM395 1843h213l152 -327h-187z" />
<glyph unicode="&#xda;" horiz-adv-x="1325" d="M141 522v862h224v-860q0 -183 73.5 -267.5t225.5 -84.5t225.5 84.5t73.5 267.5v860h223v-862q0 -142 -38 -247.5t-109 -169t-164.5 -94.5t-210.5 -31q-244 0 -383.5 132t-139.5 410zM567 1516l152 327h213l-178 -327h-187z" />
<glyph unicode="&#xdb;" horiz-adv-x="1325" d="M141 522v862h224v-860q0 -183 73.5 -267.5t225.5 -84.5t225.5 84.5t73.5 267.5v860h223v-862q0 -142 -38 -247.5t-109 -169t-164.5 -94.5t-210.5 -31q-244 0 -383.5 132t-139.5 410zM350 1516l209 327h205l207 -327h-187l-122 194l-125 -194h-187z" />
<glyph unicode="&#xdc;" horiz-adv-x="1325" d="M141 522v862h224v-860q0 -183 73.5 -267.5t225.5 -84.5t225.5 84.5t73.5 267.5v860h223v-862q0 -142 -38 -247.5t-109 -169t-164.5 -94.5t-210.5 -31q-244 0 -383.5 132t-139.5 410zM338 1661q0 65 35.5 98t95.5 33q54 0 92.5 -34t38.5 -97q0 -64 -38 -96.5t-93 -32.5 q-60 0 -95.5 31.5t-35.5 97.5zM725 1661q0 65 36.5 98t96.5 33q54 0 92.5 -34t38.5 -97q0 -64 -38 -96.5t-93 -32.5q-61 0 -97 31.5t-36 97.5z" />
<glyph unicode="&#xdd;" horiz-adv-x="1193" d="M14 1384h246l338 -636l334 636h248l-471 -839v-545h-224v545zM500 1516l151 327h213l-178 -327h-186z" />
<glyph unicode="&#xde;" horiz-adv-x="1163" d="M152 0v1386h223v-260h239q238 0 361 -112t123 -318q0 -204 -123 -317t-361 -113h-239v-266h-223zM375 451h225q266 0 266 245q0 246 -266 246h-225v-491z" />
<glyph unicode="&#xdf;" horiz-adv-x="1134" d="M125 0v995q0 206 97 322.5t292 116.5q101 0 179 -29t124 -78.5t69 -110.5t23 -131q0 -58 -26.5 -117t-57.5 -97.5t-57.5 -78t-26.5 -63.5q0 -21 15 -42.5t32 -35.5t46 -35l73 -51q90 -61 133 -129t43 -162q0 -132 -93.5 -214.5t-248.5 -82.5q-129 0 -249 60l61 164 q91 -56 166 -56q72 0 112.5 37t40.5 92q0 48 -23 86t-81 76l-84 58q-44 32 -65.5 49.5t-45.5 44t-33.5 55t-9.5 64.5q0 37 17.5 74.5t42 70t49 65.5t42 72t17.5 78q0 89 -50 136.5t-140 47.5q-57 0 -94.5 -17.5t-56.5 -52.5t-26 -75.5t-7 -99.5v-1006h-199z" />
<glyph unicode="&#xe0;" d="M70 246q0 274 442 307l131 14v74q0 74 -39 110.5t-133 36.5q-84 0 -127 -27t-43 -73v-45h-180q-4 40 -4 64q0 111 96.5 179t269.5 68q175 0 270 -77.5t95 -233.5v-643h-193v113q-118 -136 -305 -136q-128 0 -204 72.5t-76 196.5zM242 1425h213l151 -327h-186zM281 258 q0 -119 139 -119q64 0 123 27.5t100 69.5v200l-129 -18q-116 -16 -174.5 -54t-58.5 -106z" />
<glyph unicode="&#xe1;" d="M70 246q0 274 442 307l131 14v74q0 74 -39 110.5t-133 36.5q-84 0 -127 -27t-43 -73v-45h-180q-4 40 -4 64q0 111 96.5 179t269.5 68q175 0 270 -77.5t95 -233.5v-643h-193v113q-118 -136 -305 -136q-128 0 -204 72.5t-76 196.5zM281 258q0 -119 139 -119q64 0 123 27.5 t100 69.5v200l-129 -18q-116 -16 -174.5 -54t-58.5 -106zM399 1098l152 327h213l-178 -327h-187z" />
<glyph unicode="&#xe2;" d="M70 246q0 274 442 307l131 14v74q0 74 -39 110.5t-133 36.5q-84 0 -127 -27t-43 -73v-45h-180q-4 40 -4 64q0 111 96.5 179t269.5 68q175 0 270 -77.5t95 -233.5v-643h-193v113q-118 -136 -305 -136q-128 0 -204 72.5t-76 196.5zM184 1098l209 327h205l207 -327h-187 l-122 194l-125 -194h-187zM281 258q0 -119 139 -119q64 0 123 27.5t100 69.5v200l-129 -18q-116 -16 -174.5 -54t-58.5 -106z" />
<glyph unicode="&#xe3;" d="M70 246q0 274 442 307l131 14v74q0 74 -39 110.5t-133 36.5q-84 0 -127 -27t-43 -73v-45h-180q-4 40 -4 64q0 111 96.5 179t269.5 68q175 0 270 -77.5t95 -233.5v-643h-193v113q-118 -136 -305 -136q-128 0 -204 72.5t-76 196.5zM201 1180l8 155q51 -51 133 -51 q42 0 89.5 20.5t101.5 41t112 20.5q78 0 150 -47l-9 -156q-71 51 -141 51q-50 0 -146 -40.5t-157 -40.5q-43 0 -81.5 14t-59.5 33zM281 258q0 -119 139 -119q64 0 123 27.5t100 69.5v200l-129 -18q-116 -16 -174.5 -54t-58.5 -106z" />
<glyph unicode="&#xe4;" d="M70 246q0 274 442 307l131 14v74q0 74 -39 110.5t-133 36.5q-84 0 -127 -27t-43 -73v-45h-180q-4 40 -4 64q0 111 96.5 179t269.5 68q175 0 270 -77.5t95 -233.5v-643h-193v113q-118 -136 -305 -136q-128 0 -204 72.5t-76 196.5zM172 1243q0 65 35.5 98t95.5 33 q54 0 92.5 -34t38.5 -97q0 -64 -38 -96.5t-93 -32.5q-60 0 -95.5 31.5t-35.5 97.5zM281 258q0 -119 139 -119q64 0 123 27.5t100 69.5v200l-129 -18q-116 -16 -174.5 -54t-58.5 -106zM559 1243q0 65 36.5 98t96.5 33q54 0 92.5 -34t38.5 -97q0 -64 -38 -96.5t-93 -32.5 q-61 0 -97 31.5t-36 97.5z" />
<glyph unicode="&#xe5;" d="M70 246q0 274 442 307l131 14v74q0 74 -39 110.5t-133 36.5q-84 0 -127 -27t-43 -73v-45h-180q-4 40 -4 64q0 111 96.5 179t269.5 68q175 0 270 -77.5t95 -233.5v-643h-193v113q-118 -136 -305 -136q-128 0 -204 72.5t-76 196.5zM281 258q0 -119 139 -119q64 0 123 27.5 t100 69.5v200l-129 -18q-116 -16 -174.5 -54t-58.5 -106zM281 1272q0 86 57.5 143.5t157.5 57.5q104 0 162.5 -57.5t58.5 -143.5q0 -82 -59 -140.5t-162 -58.5q-99 0 -157 59t-58 140zM401 1272q0 -38 26 -64t69 -26q45 0 70.5 25.5t25.5 64.5t-25.5 64.5t-70.5 25.5 q-43 0 -69 -26t-26 -64z" />
<glyph unicode="&#xe6;" horiz-adv-x="1527" d="M70 246q0 274 440 307l131 14v74q0 75 -38 111t-134 36q-82 0 -125 -27t-43 -73v-45h-180q-6 30 -6 64q0 111 97 179t269 68q217 0 299 -125q101 125 287 125q80 0 145 -22.5t108.5 -60t73.5 -89t43 -108.5t13 -119q0 -95 -12 -154h-586q3 -116 62 -180.5t176 -64.5 q62 0 126.5 23.5t114.5 68.5l99 -135q-53 -58 -145 -97t-195 -39q-238 0 -349 156q-138 -156 -366 -156q-146 0 -225.5 71.5t-79.5 197.5zM279 258q0 -58 35.5 -88.5t103.5 -30.5q64 0 123 27.5t100 69.5v200l-127 -18q-118 -15 -176.5 -53t-58.5 -107zM852 553h403 q2 12 2 35q0 92 -52 145t-138 53q-103 0 -155 -63.5t-60 -169.5z" />
<glyph unicode="&#xe7;" horiz-adv-x="917" d="M80 467q0 102 25 188.5t74.5 154.5t132.5 106t192 38q126 0 218.5 -50.5t143.5 -147.5l-147 -105q-68 121 -201 121q-118 0 -172.5 -82t-54.5 -223t54.5 -223t172.5 -82q134 0 203 119l145 -105q-88 -177 -311 -196l-33 -82q86 0 139.5 -39.5t53.5 -126.5 q0 -77 -60.5 -125.5t-162.5 -48.5q-100 0 -189 47v135q36 -27 83 -44.5t89 -17.5q37 0 56.5 15t19.5 39q0 57 -100 57h-80l-11 12l62 183q-116 17 -194.5 86.5t-113 169.5t-34.5 227z" />
<glyph unicode="&#xe8;" d="M80 467q0 102 26.5 189.5t78 154.5t133.5 105t186 38q80 0 145 -22.5t108.5 -60t73.5 -89t43 -108.5t13 -119q0 -95 -15 -154h-583q3 -116 61.5 -180.5t173.5 -64.5q139 0 244 92l98 -135q-53 -58 -145 -97t-197 -39q-225 0 -334.5 132.5t-109.5 357.5zM256 1425h213 l152 -327h-187zM289 553h403q2 12 2 35q0 92 -52 145t-138 53q-104 0 -156.5 -63.5t-58.5 -169.5z" />
<glyph unicode="&#xe9;" d="M80 467q0 102 26.5 189.5t78 154.5t133.5 105t186 38q80 0 145 -22.5t108.5 -60t73.5 -89t43 -108.5t13 -119q0 -95 -15 -154h-583q3 -116 61.5 -180.5t173.5 -64.5q139 0 244 92l98 -135q-53 -58 -145 -97t-197 -39q-225 0 -334.5 132.5t-109.5 357.5zM289 553h403 q2 12 2 35q0 92 -52 145t-138 53q-104 0 -156.5 -63.5t-58.5 -169.5zM399 1098l152 327h213l-178 -327h-187z" />
<glyph unicode="&#xea;" d="M80 467q0 102 26.5 189.5t78 154.5t133.5 105t186 38q80 0 145 -22.5t108.5 -60t73.5 -89t43 -108.5t13 -119q0 -95 -15 -154h-583q3 -116 61.5 -180.5t173.5 -64.5q139 0 244 92l98 -135q-53 -58 -145 -97t-197 -39q-225 0 -334.5 132.5t-109.5 357.5zM197 1098l209 327 h204l207 -327h-186l-123 194l-125 -194h-186zM289 553h403q2 12 2 35q0 92 -52 145t-138 53q-104 0 -156.5 -63.5t-58.5 -169.5z" />
<glyph unicode="&#xeb;" d="M80 467q0 102 26.5 189.5t78 154.5t133.5 105t186 38q80 0 145 -22.5t108.5 -60t73.5 -89t43 -108.5t13 -119q0 -95 -15 -154h-583q3 -116 61.5 -180.5t173.5 -64.5q139 0 244 92l98 -135q-53 -58 -145 -97t-197 -39q-225 0 -334.5 132.5t-109.5 357.5zM186 1243 q0 65 35.5 98t95.5 33q54 0 93 -34t39 -97q0 -64 -38.5 -96.5t-93.5 -32.5q-60 0 -95.5 31.5t-35.5 97.5zM289 553h403q2 12 2 35q0 92 -52 145t-138 53q-104 0 -156.5 -63.5t-58.5 -169.5zM573 1243q0 65 37 98t97 33q54 0 92.5 -34t38.5 -97q0 -64 -38 -96.5t-93 -32.5 q-61 0 -97.5 31.5t-36.5 97.5z" />
<glyph unicode="&#xec;" horiz-adv-x="456" d="M-29 1425h213l152 -327h-186zM127 0v934h205v-934h-205z" />
<glyph unicode="&#xed;" horiz-adv-x="456" d="M121 1098l151 327h213l-178 -327h-186zM125 0v934h205v-934h-205z" />
<glyph unicode="&#xee;" horiz-adv-x="458" d="M-80 1098l209 327h205l207 -327h-187l-123 194l-125 -194h-186zM127 0v934h205v-934h-205z" />
<glyph unicode="&#xef;" horiz-adv-x="458" d="M-96 1243q0 65 35.5 98t95.5 33q54 0 92.5 -34t38.5 -97q0 -64 -38 -96.5t-93 -32.5q-60 0 -95.5 31.5t-35.5 97.5zM127 0v934h205v-934h-205zM291 1243q0 65 36.5 98t96.5 33q54 0 92.5 -34t38.5 -97q0 -64 -38 -96.5t-93 -32.5q-61 0 -97 31.5t-36 97.5z" />
<glyph unicode="&#xf0;" horiz-adv-x="1075" d="M80 451q0 210 106.5 337t290.5 127q112 0 188.5 -48.5t118.5 -123.5q-3 162 -92 334l-155 -69l-56 131l140 59q-83 119 -193 215h252q57 -52 119 -137l129 55l53 -127l-111 -49q115 -235 115 -512q0 -107 -14.5 -201t-48.5 -180.5t-86 -148.5t-132.5 -99t-181.5 -37 q-217 0 -329.5 128.5t-112.5 345.5zM285 440q0 -124 58 -203t179 -79q66 0 115 31.5t77 86.5t41 119t15 140q-36 82 -100 134t-156 52q-115 0 -172 -75t-57 -206z" />
<glyph unicode="&#xf1;" horiz-adv-x="1060" d="M125 0v934h199v-109q42 58 118.5 93.5t178.5 35.5q323 0 323 -364v-590h-205v569q0 100 -44 147.5t-148 47.5q-65 0 -124 -25.5t-93 -62.5v-676h-205zM244 1180l8 155q51 -51 133 -51q42 0 89.5 20.5t101.5 41t112 20.5q78 0 150 -47l-9 -156q-71 51 -141 51 q-50 0 -146 -40.5t-157 -40.5q-43 0 -81.5 14t-59.5 33z" />
<glyph unicode="&#xf2;" horiz-adv-x="1024" d="M80 465q0 108 26 196t78 154t136 102.5t194 36.5q108 0 191 -36t134 -102t77 -153.5t26 -193.5q0 -109 -25.5 -197.5t-77.5 -155t-136.5 -103t-196.5 -36.5q-106 0 -188 37t-133.5 103t-78 154t-26.5 194zM262 1425h213l152 -327h-187zM291 469q0 -305 219 -305 q223 0 223 301q0 303 -223 303q-219 0 -219 -299z" />
<glyph unicode="&#xf3;" horiz-adv-x="1024" d="M80 465q0 108 26 196t78 154t136 102.5t194 36.5q108 0 191 -36t134 -102t77 -153.5t26 -193.5q0 -109 -25.5 -197.5t-77.5 -155t-136.5 -103t-196.5 -36.5q-106 0 -188 37t-133.5 103t-78 154t-26.5 194zM291 469q0 -305 219 -305q223 0 223 301q0 303 -223 303 q-219 0 -219 -299zM408 1098l151 327h213l-178 -327h-186z" />
<glyph unicode="&#xf4;" horiz-adv-x="1024" d="M80 465q0 108 26 196t78 154t136 102.5t194 36.5q108 0 191 -36t134 -102t77 -153.5t26 -193.5q0 -109 -25.5 -197.5t-77.5 -155t-136.5 -103t-196.5 -36.5q-106 0 -188 37t-133.5 103t-78 154t-26.5 194zM203 1098l209 327h204l207 -327h-186l-123 194l-125 -194h-186z M291 469q0 -305 219 -305q223 0 223 301q0 303 -223 303q-219 0 -219 -299z" />
<glyph unicode="&#xf5;" horiz-adv-x="1024" d="M80 465q0 108 26 196t78 154t136 102.5t194 36.5q108 0 191 -36t134 -102t77 -153.5t26 -193.5q0 -109 -25.5 -197.5t-77.5 -155t-136.5 -103t-196.5 -36.5q-106 0 -188 37t-133.5 103t-78 154t-26.5 194zM221 1180l8 155q51 -51 133 -51q42 0 90 20.5t102 41t112 20.5 q77 0 149 -47l-8 -156q-71 51 -141 51q-50 0 -146.5 -40.5t-157.5 -40.5q-43 0 -81.5 14t-59.5 33zM291 469q0 -305 219 -305q223 0 223 301q0 303 -223 303q-219 0 -219 -299z" />
<glyph unicode="&#xf6;" horiz-adv-x="1024" d="M80 465q0 108 26 196t78 154t136 102.5t194 36.5q108 0 191 -36t134 -102t77 -153.5t26 -193.5q0 -109 -25.5 -197.5t-77.5 -155t-136.5 -103t-196.5 -36.5q-106 0 -188 37t-133.5 103t-78 154t-26.5 194zM188 1243q0 65 35.5 98t95.5 33q54 0 93 -34t39 -97 q0 -64 -38.5 -96.5t-93.5 -32.5q-60 0 -95.5 31.5t-35.5 97.5zM291 469q0 -305 219 -305q223 0 223 301q0 303 -223 303q-219 0 -219 -299zM575 1243q0 65 37 98t97 33q54 0 92.5 -34t38.5 -97q0 -64 -38 -96.5t-93 -32.5q-61 0 -97.5 31.5t-36.5 97.5z" />
<glyph unicode="&#xf7;" horiz-adv-x="1146" d="M84 465v176h977v-176h-977zM434 178q0 60 40.5 98.5t103.5 38.5q62 0 102.5 -38.5t40.5 -98.5t-40.5 -99.5t-102.5 -39.5q-63 0 -103.5 39.5t-40.5 99.5zM434 926q0 61 40.5 100t103.5 39q62 0 102.5 -39t40.5 -100q0 -60 -40.5 -99t-102.5 -39q-63 0 -103.5 39t-40.5 99 z" />
<glyph unicode="&#xf8;" horiz-adv-x="1024" d="M76 0l98 129q-94 128 -94 336q0 108 26 196t78 154t136 102.5t194 36.5q142 0 242 -65l35 45h165l-104 -135q90 -127 90 -330q0 -109 -25.5 -197.5t-77.5 -155t-136.5 -103t-196.5 -36.5q-142 0 -240 64l-30 -41h-160zM291 469q0 -98 20 -162l326 426q-50 35 -127 35 q-219 0 -219 -299zM387 197q47 -33 123 -33q223 0 223 301q0 92 -20 153z" />
<glyph unicode="&#xf9;" horiz-adv-x="1060" d="M117 344v590h205v-569q0 -100 44 -147.5t148 -47.5q65 0 124 25.5t93 62.5v676h205v-934h-199v109q-42 -58 -118.5 -93.5t-178.5 -35.5q-323 0 -323 364zM270 1425h213l152 -327h-186z" />
<glyph unicode="&#xfa;" horiz-adv-x="1060" d="M117 344v590h205v-569q0 -100 44 -147.5t148 -47.5q65 0 124 25.5t93 62.5v676h205v-934h-199v109q-42 -58 -118.5 -93.5t-178.5 -35.5q-323 0 -323 364zM426 1098l152 327h213l-179 -327h-186z" />
<glyph unicode="&#xfb;" horiz-adv-x="1060" d="M117 344v590h205v-569q0 -100 44 -147.5t148 -47.5q65 0 124 25.5t93 62.5v676h205v-934h-199v109q-42 -58 -118.5 -93.5t-178.5 -35.5q-323 0 -323 364zM211 1098l209 327h205l206 -327h-186l-123 194l-125 -194h-186z" />
<glyph unicode="&#xfc;" horiz-adv-x="1060" d="M117 344v590h205v-569q0 -100 44 -147.5t148 -47.5q65 0 124 25.5t93 62.5v676h205v-934h-199v109q-42 -58 -118.5 -93.5t-178.5 -35.5q-323 0 -323 364zM203 1243q0 65 35.5 98t95.5 33q54 0 92.5 -34t38.5 -97q0 -64 -38 -96.5t-93 -32.5q-60 0 -95.5 31.5t-35.5 97.5z M590 1243q0 65 36.5 98t96.5 33q54 0 92.5 -34t38.5 -97q0 -64 -38 -96.5t-93 -32.5q-61 0 -97 31.5t-36 97.5z" />
<glyph unicode="&#xfd;" horiz-adv-x="993" d="M18 934h234l258 -645l238 645h223l-559 -1376h-211l207 491zM416 1098l151 327h213l-178 -327h-186z" />
<glyph unicode="&#xfe;" horiz-adv-x="1064" d="M125 -442v1824h205v-526q95 98 260 98q191 0 292 -129t101 -362q0 -230 -101 -358t-294 -128q-85 0 -151.5 28.5t-106.5 70.5v-518h-205zM330 256q79 -88 207 -88q127 0 181 77.5t54 217.5q0 301 -233 301q-140 0 -209 -88v-420z" />
<glyph unicode="&#xff;" horiz-adv-x="993" d="M18 934h234l258 -645l238 645h223l-559 -1376h-211l207 491zM182 1243q0 65 35.5 98t95.5 33q54 0 92.5 -34t38.5 -97q0 -64 -38 -96.5t-93 -32.5q-60 0 -95.5 31.5t-35.5 97.5zM569 1243q0 65 36.5 98t96.5 33q54 0 93 -34t39 -97q0 -64 -38.5 -96.5t-93.5 -32.5 q-61 0 -97 31.5t-36 97.5z" />
<glyph unicode="&#x152;" horiz-adv-x="1806" d="M94 690q0 126 19.5 232t63 196.5t110 153t165 98t222.5 35.5q85 0 178 -21h862v-184h-641v-405h561v-185h-561v-426h647v-184h-870q-85 -20 -180 -20q-123 0 -220.5 35t-164 97t-109.5 151.5t-62.5 195t-19.5 231.5zM326 690q0 -96 9.5 -172t34 -142.5t63 -110 t98.5 -68.5t139 -25q104 0 180 31v975q-75 34 -176 34q-78 0 -138 -25t-99.5 -69.5t-64.5 -110.5t-35.5 -143.5t-10.5 -173.5z" />
<glyph unicode="&#x153;" horiz-adv-x="1630" d="M80 465q0 108 26 196t78 154t136 102.5t194 36.5q228 0 332 -168q109 168 321 168q99 0 175 -33.5t120.5 -91t67 -127t22.5 -147.5q0 -86 -14 -154h-584q3 -116 61.5 -180.5t174.5 -64.5q139 0 244 92l98 -135q-55 -58 -146.5 -97t-195.5 -39q-241 0 -346 166 q-107 -166 -338 -166q-106 0 -188 37t-133.5 103t-78 154t-26.5 194zM291 469q0 -305 219 -305q223 0 223 301q0 303 -223 303q-219 0 -219 -299zM954 553h404q2 12 2 35q0 92 -53 145t-140 53q-103 0 -155 -63.5t-58 -169.5z" />
<glyph unicode="&#x178;" horiz-adv-x="1193" d="M14 1384h246l338 -636l334 636h248l-471 -839v-545h-224v545zM272 1661q0 65 35.5 98t95.5 33q54 0 93 -34t39 -97q0 -64 -38.5 -96.5t-93.5 -32.5q-60 0 -95.5 31.5t-35.5 97.5zM659 1661q0 65 37 98t97 33q54 0 92.5 -34t38.5 -97q0 -64 -38 -96.5t-93 -32.5 q-61 0 -97.5 31.5t-36.5 97.5z" />
<glyph unicode="&#x2c6;" horiz-adv-x="1228" d="M303 1098l209 327h205l207 -327h-187l-123 194l-125 -194h-186z" />
<glyph unicode="&#x2dc;" horiz-adv-x="1228" d="M317 1180l9 155q51 -51 133 -51q42 0 89.5 20.5t101.5 41t112 20.5q77 0 149 -47l-8 -156q-71 51 -141 51q-50 0 -146 -40.5t-157 -40.5q-43 0 -82.5 14t-59.5 33z" />
<glyph unicode="&#x2000;" horiz-adv-x="931" />
<glyph unicode="&#x2001;" horiz-adv-x="1862" />
<glyph unicode="&#x2002;" horiz-adv-x="931" />
<glyph unicode="&#x2003;" horiz-adv-x="1862" />
<glyph unicode="&#x2004;" horiz-adv-x="620" />
<glyph unicode="&#x2005;" horiz-adv-x="465" />
<glyph unicode="&#x2006;" horiz-adv-x="310" />
<glyph unicode="&#x2007;" horiz-adv-x="310" />
<glyph unicode="&#x2008;" horiz-adv-x="232" />
<glyph unicode="&#x2009;" horiz-adv-x="372" />
<glyph unicode="&#x200a;" horiz-adv-x="103" />
<glyph unicode="&#x2010;" horiz-adv-x="796" d="M119 465v176h559v-176h-559z" />
<glyph unicode="&#x2011;" horiz-adv-x="796" d="M119 465v176h559v-176h-559z" />
<glyph unicode="&#x2012;" horiz-adv-x="796" d="M119 465v176h559v-176h-559z" />
<glyph unicode="&#x2013;" horiz-adv-x="1208" d="M119 465v176h971v-176h-971z" />
<glyph unicode="&#x2014;" horiz-adv-x="1495" d="M119 465v176h1257v-176h-1257z" />
<glyph unicode="&#x2018;" horiz-adv-x="454" d="M86 893l119 491h157l-51 -491h-225z" />
<glyph unicode="&#x2019;" horiz-adv-x="442" d="M102 893l52 491h227l-123 -491h-156z" />
<glyph unicode="&#x201a;" horiz-adv-x="466" d="M82 -225l51 491h227l-120 -491h-158z" />
<glyph unicode="&#x201c;" horiz-adv-x="776" d="M86 893l119 491h157l-51 -491h-225zM408 893l118 491h158l-51 -491h-225z" />
<glyph unicode="&#x201d;" horiz-adv-x="763" d="M102 893l52 491h227l-123 -491h-156zM424 893l51 491h227l-122 -491h-156z" />
<glyph unicode="&#x201e;" horiz-adv-x="788" d="M82 -227l51 491h225l-120 -491h-156zM403 -227l52 491h225l-121 -491h-156z" />
<glyph unicode="&#x2022;" horiz-adv-x="802" d="M143 551q0 107 73 177.5t185 70.5t185 -70.5t73 -177.5q0 -106 -73 -176t-185 -70t-185 70t-73 176z" />
<glyph unicode="&#x2026;" horiz-adv-x="1335" d="M94 125q0 60 40.5 99.5t103.5 39.5q62 0 102.5 -39.5t40.5 -99.5t-40.5 -98.5t-102.5 -38.5q-63 0 -103.5 38.5t-40.5 98.5zM530 125q0 60 41 99.5t103 39.5q63 0 104 -39.5t41 -99.5t-41 -98.5t-104 -38.5q-62 0 -103 38.5t-41 98.5zM954 125q0 60 41 99.5t103 39.5 t102.5 -39.5t40.5 -99.5t-40.5 -98.5t-102.5 -38.5t-103 38.5t-41 98.5z" />
<glyph unicode="&#x202f;" horiz-adv-x="372" />
<glyph unicode="&#x2039;" horiz-adv-x="655" d="M49 553l389 457l131 -95l-272 -364l274 -363l-133 -92z" />
<glyph unicode="&#x203a;" horiz-adv-x="655" d="M84 188l274 363l-272 364l131 95l389 -457l-389 -457z" />
<glyph unicode="&#x205f;" horiz-adv-x="465" />
<glyph unicode="&#x20ac;" horiz-adv-x="1171" d="M80 477v139h98v138h-98v141h113q74 510 534 510q178 0 358 -84l-69 -184q-142 73 -293 73q-255 0 -307 -315h514l-51 -141h-478v-58q0 -55 2 -80h428l-51 -139h-356q31 -142 108.5 -223.5t204.5 -81.5q159 0 295 88l55 -190q-170 -93 -360 -93q-229 0 -362 128t-170 372 h-115z" />
<glyph unicode="&#x2122;" horiz-adv-x="1298" d="M96 1159v84h422v-84h-160v-401h-106v401h-156zM590 758l53 485h150l92 -371l94 371h145l52 -485h-103l-31 370l-102 -370h-117l-94 366l-37 -366h-102z" />
<glyph unicode="&#x25fc;" horiz-adv-x="931" d="M0 0v932h932v-932h-932z" />
</font>
</defs>
</svg>
