<?xml version="1.0" encoding="UTF-8"?>
<svg width="340px" height="63px" viewBox="0 0 340 63" version="1.1" xmlns="http://www.w3.org/2000/svg" xmlns:xlink="http://www.w3.org/1999/xlink">
    <!-- Generator: Sketch 46.2 (44496) - http://www.bohemiancoding.com/sketch -->
    <title>Group 2</title>
    <desc>Created with Sketch.</desc>
    <defs>
        <filter x="-4.7%" y="-33.3%" width="109.4%" height="168.7%" filterUnits="objectBoundingBox" id="filter-1">
            <feOffset dx="0" dy="0" in="SourceAlpha" result="shadowOffsetOuter1"></feOffset>
            <feGaussianBlur stdDeviation="3" in="shadowOffsetOuter1" result="shadowBlurOuter1"></feGaussianBlur>
            <feColorMatrix values="0 0 0 0 0.0705882353   0 0 0 0 0.376470588   0 0 0 0 0.933333333  0 0 0 0.4 0" type="matrix" in="shadowBlurOuter1" result="shadowMatrixOuter1"></feColorMatrix>
            <feMerge>
                <feMergeNode in="shadowMatrixOuter1"></feMergeNode>
                <feMergeNode in="SourceGraphic"></feMergeNode>
            </feMerge>
        </filter>
        <path d="M97.9343556,1.6084788 L97.9343556,26.7413815 C97.9343556,29.1748969 97.3905501,31.4587768 96.3029228,33.5930895 C95.2152955,35.7274022 93.7257414,37.5924045 91.8342157,39.1881523 C89.94269,40.7839002 87.7320025,42.0405327 85.2020868,42.9580877 C82.6721712,43.8756428 79.9649657,44.3344134 77.080389,44.3344134 C74.1958123,44.3344134 71.4886067,43.8756428 68.9586911,42.9580877 C66.4287754,42.0405327 64.2180879,40.7839002 62.3265622,39.1881523 C60.4350365,37.5924045 58.9454824,35.7274022 57.8578551,33.5930895 C56.7702278,31.4587768 56.2264223,29.1748969 56.2264223,26.7413815 L56.2264223,1.6084788 L64.7382454,1.6084788 L64.7382454,26.7413815 C64.7382454,28.1376608 65.0456137,29.4641063 65.6603596,30.7207578 C66.2751055,31.9774092 67.1735667,33.1043892 68.3557703,34.1017316 C69.5379738,35.099074 70.8738438,35.8570428 72.3634203,36.3756609 C73.8529968,36.8942789 75.425304,37.153584 77.080389,37.153584 C80.4851352,37.153584 83.3933124,36.13631 85.8050077,34.1017316 C86.9872112,33.1043892 87.8856725,31.9774092 88.5004183,30.7207578 C89.1151642,29.4641063 89.4225325,28.1376608 89.4225325,26.7413815 L89.4225325,1.6084788 L97.9343556,1.6084788 Z M123.574137,36.3158206 L143.080398,36.3158206 L143.080398,43.4966499 L115.062313,43.4966499 L115.062313,1.66831905 L123.574137,1.66831905 L123.574137,36.3158206 Z M180.069276,1.6084788 C183.474023,1.6084788 186.689568,2.15700889 189.716009,3.25408553 C192.74245,4.35116216 195.378725,5.84715331 197.624911,7.74210386 C199.871098,9.63705441 201.644377,11.8610946 202.944801,14.4142911 C204.245225,16.9674877 204.895427,19.6802183 204.895427,22.5525644 C204.895427,25.4249105 204.245225,28.1376411 202.944801,30.6908376 C201.644377,33.2440342 199.871098,35.4680743 197.624911,37.3630249 C195.378725,39.2579754 192.74245,40.7539666 189.716009,41.8510432 C186.689568,42.9481199 183.474023,43.4966499 180.069276,43.4966499 L171.273726,43.4966499 L174.749387,36.3158206 L180.069276,36.3158206 C182.244531,36.3158206 184.325178,35.966756 186.31128,35.2686163 C188.297382,34.5704767 190.070661,33.5831225 191.631169,32.3065242 C193.14439,30.9900323 194.314754,29.5040144 195.142296,27.848426 C195.969839,26.1928376 196.383604,24.4275681 196.383604,22.5525644 C196.383604,20.7174544 195.969839,18.9621581 195.142296,17.2866229 C194.314754,15.6110876 193.14439,14.1150965 191.631169,12.7986045 C190.070661,11.5220063 188.297382,10.5346521 186.31128,9.83651242 C184.325178,9.13837274 182.244531,8.78930814 180.069276,8.78930814 L168.01086,8.78930814 L168.01086,43.4966499 L159.499037,43.4966499 L159.499037,1.6084788 L180.069276,1.6084788 Z M246.494876,1.6084788 L268.909344,43.4966499 L259.546338,43.4966499 L251.885698,29.1349913 L241.813374,10.3451545 L231.74105,29.1349913 L244.650648,29.1349913 L248.480968,36.3158206 L227.910729,36.3158206 L224.080409,43.4966499 L214.717403,43.4966499 L237.131871,1.6084788 L246.494876,1.6084788 Z M321.006708,16.6283802 C321.006708,18.1443406 320.758449,19.5904654 320.261924,20.9667979 C319.765398,22.3431304 319.07973,23.6097362 318.2049,24.7666534 C317.330069,25.9235706 316.266102,26.9707644 315.012966,27.9082663 C313.75983,28.8457681 312.376673,29.6137102 310.863452,30.2121157 L321.006708,43.4966499 L310.863452,43.4966499 L301.855106,31.7081218 L296.038694,31.7081218 L299.514355,24.5272924 L303.202812,24.5272924 C305.756371,24.5272924 307.955237,23.749377 309.799474,22.1935229 C310.650661,21.4355427 311.312685,20.5778411 311.785567,19.6203924 C312.258448,18.6629437 312.494885,17.6656163 312.494885,16.6283802 C312.494885,15.5911441 312.258448,14.5938166 311.785567,13.6363679 C311.312685,12.6789192 310.650661,11.8411642 309.799474,11.1230777 C307.955237,9.56722354 305.756371,8.78930814 303.202812,8.78930814 L293.130488,8.78930814 L293.130488,43.4966499 L284.618664,43.4966499 L284.618664,1.6084788 L303.202812,1.6084788 C305.661795,1.6084788 307.967057,2.00740978 310.118668,2.80528369 C312.270278,3.60315761 314.149954,4.68027124 315.757751,6.0366569 C317.365548,7.39304255 318.642308,8.97879317 319.588071,10.7939563 C320.533834,12.6091195 321.006708,14.553908 321.006708,16.6283802 Z" id="path-2"></path>
        <filter x="-3.7%" y="-22.8%" width="107.3%" height="145.5%" filterUnits="objectBoundingBox" id="filter-3">
            <feMorphology radius="0.727900998" operator="dilate" in="SourceAlpha" result="shadowSpreadOuter1"></feMorphology>
            <feOffset dx="0" dy="0" in="shadowSpreadOuter1" result="shadowOffsetOuter1"></feOffset>
            <feGaussianBlur stdDeviation="3" in="shadowOffsetOuter1" result="shadowBlurOuter1"></feGaussianBlur>
            <feComposite in="shadowBlurOuter1" in2="SourceAlpha" operator="out" result="shadowBlurOuter1"></feComposite>
            <feColorMatrix values="0 0 0 0 0.11372549   0 0 0 0 0.592156863   0 0 0 0 0.960784314  0 0 0 0.4 0" type="matrix" in="shadowBlurOuter1"></feColorMatrix>
        </filter>
        <path d="M9.03744084,26.3723894 L25.283021,26.3723894 L25.283021,26.3723894 C29.0180811,26.3723894 32.0459455,29.4002538 32.0459455,33.1353139 C32.0459455,33.1911548 32.0452539,33.2469935 32.0438709,33.3028172 L38.7446378,41.1285622 L38.7446378,41.1285622 C40.8880532,35.7703656 40.6879521,29.7591474 38.1929497,24.5553543 L37.1617627,22.4046214 L39.4443418,19.3833796 L39.4443418,19.3833796 C42.0787878,15.8964036 42.473668,11.2054159 40.4592209,7.32710311 L40.4592209,7.32710311 L40.4592209,7.32710311 C38.4313953,3.42303352 34.4073768,0.963944117 30.0081403,0.940417376 L4.18718124,0.802329094 L10.9567588,8.9142103 L27.4542539,8.9142103 L27.4542539,8.9142103 C30.0838592,8.9142103 32.2155755,11.0459266 32.2155755,13.6755319 C32.2155755,16.3051372 30.0838592,18.4368534 27.4542539,18.4368534 L9.03744084,18.4368534 L9.03744084,13.2147272 L0.34463455,3.16453522 L0.34463455,44.2557557 L35.8008608,44.3344134 L28.8365563,36.3865558 L9.03744084,36.3865558 L9.03744084,26.3723894 Z" id="path-4"></path>
        <filter x="-21.7%" y="-20.7%" width="143.5%" height="141.3%" filterUnits="objectBoundingBox" id="filter-5">
            <feOffset dx="0" dy="0" in="SourceAlpha" result="shadowOffsetOuter1"></feOffset>
            <feGaussianBlur stdDeviation="3" in="shadowOffsetOuter1" result="shadowBlurOuter1"></feGaussianBlur>
            <feColorMatrix values="0 0 0 0 0.11372549   0 0 0 0 0.592156863   0 0 0 0 0.960784314  0 0 0 0.4 0" type="matrix" in="shadowBlurOuter1"></feColorMatrix>
        </filter>
    </defs>
    <g id="Page-2" stroke="none" stroke-width="1" fill="none" fill-rule="evenodd">
        <g id="Buldar-comingsoon" transform="translate(-525.000000, -295.000000)">
            <g id="Group-3" transform="translate(424.638404, 275.049875)">
                <g id="Group-2" filter="url(#filter-1)" transform="translate(109.376559, 28.952618)">
                    <g id="BULDAR">
                        <use fill="black" fill-opacity="1" filter="url(#filter-3)" xlink:href="#path-2"></use>
                        <use fill="#FFFFFF" fill-rule="evenodd" xlink:href="#path-2"></use>
                    </g>
                    <g id="Combined-Shape">
                        <use fill="black" fill-opacity="1" filter="url(#filter-5)" xlink:href="#path-4"></use>
                        <use fill="#FFFFFF" fill-rule="evenodd" xlink:href="#path-4"></use>
                    </g>
                </g>
            </g>
        </g>
    </g>
</svg>