<?xml version="1.0" encoding="utf-8"?>
<!-- Generator: Adobe Illustrator 21.0.2, SVG Export Plug-In . SVG Version: 6.00 Build 0)  -->
<svg version="1.1" id="Layer_1" xmlns="http://www.w3.org/2000/svg" xmlns:xlink="http://www.w3.org/1999/xlink" x="0px" y="0px"
	 viewBox="0 0 635 205.6" style="enable-background:new 0 0 635 205.6;" xml:space="preserve">
<style type="text/css">
	.st0{fill:#FFFFFF;}
</style>
<g>
	<path class="st0" d="M388.9,60.5c0.3-0.2,0.7-0.4,1-0.6c0.3,0.2,0.7,0.4,1,0.6c0.1,0,1.5,1,4.1,2.5c-0.1-1.4-0.2-2.9-0.3-4.3
		c0-0.5-0.5-0.9-1-0.9c-2.5,0.2-5,0.2-7.6,0c-0.5,0-1,0.4-1,0.9c-0.1,1.4-0.2,2.9-0.3,4.3C387.4,61.4,388.8,60.5,388.9,60.5z"/>
	<g>
		<path class="st0" d="M381.6,65.8C381.6,65.8,381.7,65.8,381.6,65.8c-17.2,3.9-30.1,19.9-30.1,39c0,0.2,0,0.5,0,0.7
			C360,86,373.8,72.4,381.6,65.8z"/>
		<path class="st0" d="M398.2,65.8c7.8,6.5,21.7,20.1,30.1,39.7c0-0.3,0-0.5,0-0.8C428.3,85.7,415.4,69.7,398.2,65.8
			C398.1,65.8,398.2,65.8,398.2,65.8z"/>
	</g>
	<path class="st0" d="M376.8,1.8l8.2,50.3c0.2,0.9,1.1,2.4,2,2.4h5.7c1,0,1.9-1.5,2-2.4l8.2-49.9C403.1,2.2,392-2.5,376.8,1.8z"/>
	<path class="st0" d="M404.8,205.6l23.5-33.3c-2.6-17.9-0.7-31.2-1.4-39.8c-0.7-8.6,1.3-18.6,1.3-18.6c-0.1-0.2-0.1-0.4-0.2-0.6
		C420.1,92.7,405.7,78.3,397,71c-4.3-3.6-7.1-5.4-7.1-5.4s-2.9,1.8-7.1,5.4c-8.6,7.2-23,21.6-30.9,42.4c-0.1,0.2-0.1,0.4-0.2,0.6
		c0,0,2.1,10,1.4,18.6c-0.7,8.6,1.2,21.9-1.4,39.8l23.5,33.3l-3.2-62.2l-16.3-9.8l2.4-3.6l5.5-8.3l21.5,8.2c0,0,1.4,11.1-2,16.5
		c-0.1,0.1-0.1,0.2-0.2,0.3c0,0,0.3,6.1,7.1,9.6c6.8-3.5,7.1-9.6,7.1-9.6c-0.1-0.1-0.1-0.2-0.2-0.3c-3.4-5.4-2-16.5-2-16.5l15.9-6.1
		c0.1-1.2,0.1-2.4,0.2-3.4c0.3-4.8,0.4-7.9,0.4-7.9h0.4c0,0,0.2,3.1,0.4,7.9c0,0.9,0.1,1.9,0.2,2.9l4-1.5l5.5,8.3l2.4,3.6l-11.4,6.8
		c-0.1,2.3-0.2,4.6-0.4,6.7c-0.2,3-0.3,5.4-0.4,7.8c-0.2,4.8-0.4,7.6-0.4,7.6h-0.4c0,0-0.1-2.8-0.4-7.6c-0.1-2.4-0.2-5-0.4-8
		c-0.1-1.7-0.2-3.3-0.3-5.1l-2.4,1.5L404.8,205.6z"/>
</g>
<g>
	<path class="st0" d="M27.9,127.6c9.3,1.7,13.7,9.1,12.7,15.9c-0.9,5.7-2.5,10-7,13.6c-4.7,3.5-11.6,3.2-17.2,3.2
		c-5.9-0.1-14.7-1.9-14.7-1.9l3-14.9c0,0,7.6,1.1,13.3,1.5c2.9,0.1,6.2,0.8,6.8-1.9c0.2-1,0.3-2.9-3.7-3.4c0,0-0.1-0.1-4.7-0.6
		c-4.5-0.6-6.6-1.1-6.6-1.1c-7.3-1.5-10.3-8.8-9.6-14.4c0.8-5.8,2.4-10.1,7-13.6c4.6-3.6,10.2-3.9,15.7-3.7c5.4,0.3,15.4,2,15.4,2
		l-3.2,14.4c0,0-8.7-1.1-12.4-1.4c-4.6-0.3-6.3-0.6-6.8,1.4c-0.4,1.6,0.6,2.7,1.5,3c0,0,0.8,0.4,5.7,1.1
		C25.7,127.3,27.9,127.6,27.9,127.6z"/>
	<path class="st0" d="M85.1,144.7c-4.2,4.2-9.3,6.3-15.2,6.3h-9.1v7.2H45.2v-49.9h24.6c5.9,0,11.1,1.9,15.2,6.1
		c4.2,4.2,6.3,9.3,6.3,15.2C91.4,135.5,89.3,140.6,85.1,144.7z M69.9,123.7h-9.1v11.9h9.1c3.3,0,5.9-2.7,5.9-6
		C75.8,126.3,73.2,123.7,69.9,123.7z"/>
	<path class="st0" d="M122.8,151.6h-15.9l-2.3,6.6l-16.4-0.1l17.3-49.9h18.5l17.3,49.9h-16.3L122.8,151.6z M118.4,138.9l-3.5-10.1
		l-3.5,10.1H118.4z"/>
	<path class="st0" d="M184.7,167.4l-12.5-16.6c-1,0.1-2.1,0.2-3.2,0.2h-9.1v7.1h-15.6v-49.9H169c5.9,0,11.1,1.8,15.2,6
		c4.2,4.2,6.3,9.3,6.3,15.2c0,5.2-1.7,9.7-4.8,13.5l11.4,15.1L184.7,167.4z M169,135.5c3.3,0,5.9-2.7,5.9-6c0-3.2-2.6-5.9-5.9-5.9
		h-9.1v11.9H169z"/>
	<path class="st0" d="M234.1,123.6h-13v34.6h-15.4v-34.6h-13v-15.3h41.5V123.6z"/>
	<path class="st0" d="M262.3,151.6h-15.9l-2.3,6.6l-16.4-0.1l17.3-49.9h18.5l17.3,49.9h-16.3L262.3,151.6z M257.9,138.9l-3.5-10.1
		l-3.5,10.1H257.9z"/>
	<path class="st0" d="M330.7,158.2h-15.3l-0.1,0.1l-16-23.1v23h-15.4v-49.8l15.4-0.1l15.9,22.7v-22.7h15.5V158.2z"/>
</g>
<g>
	<path class="st0" d="M499.1,132.7c0,0.2,0,0.4,0,0.6c0,7.3-2.2,13.7-7.4,18.9c-5.2,5.2-11.5,7.8-18.9,7.8c-7.3,0-13.7-2.7-18.9-7.8
		c-5.2-5.2-7.8-11.6-7.8-18.9c0-7.4,2.6-13.7,7.8-18.9c5.2-5.2,11.6-7.9,18.9-7.9c7.4,0,13.7,2.7,18.9,7.9L480.2,125
		c-2.2-2.2-4.3-2.8-7.4-2.8c-3.1,0-5.7,1.1-8,3.3c-2.2,2.2-3.2,4.8-3.2,7.9c0,3.1,1.1,5.7,3.2,8c2.2,2.2,4.9,3.2,8,3.2
		c3.1,0,5.7-1.1,7.9-3.2c0.6-0.6,1.1-1.1,1.5-1.8h-8.6v-9.8h25.5C499.1,129.7,499.1,132,499.1,132.7z"/>
	<path class="st0" d="M518.8,122v4.7h20.1v12.5h-20.1v5h20.5v14.1h-36.1v-49.9h36V122H518.8z"/>
	<path class="st0" d="M560.3,122v4.7h20.1v12.5h-20.1v5h20.5v14.1h-36.1v-49.9h36V122H560.3z"/>
	<path class="st0" d="M622.7,167.4L602,140.9v17.2h-15.5v-49.8H602v16.3l18.2-18.2l10.9,11l-15.3,15.4l19.2,25.4L622.7,167.4z"/>
</g>
</svg>
