<?xml version="1.0" encoding="UTF-8"?>
<svg width="219px" height="258px" viewBox="0 0 219 258" version="1.1" xmlns="http://www.w3.org/2000/svg" xmlns:xlink="http://www.w3.org/1999/xlink">
    <!-- Generator: Sketch 46.2 (44496) - http://www.bohemiancoding.com/sketch -->
    <title>Group 13</title>
    <desc>Created with Sketch.</desc>
    <defs>
        <linearGradient x1="81.6488656%" y1="0%" x2="50%" y2="100%" id="linearGradient-1">
            <stop stop-color="#2999F8" offset="0%"></stop>
            <stop stop-color="#1260EE" offset="100%"></stop>
        </linearGradient>
        <path d="M90.7998445,136.102429 L121.739632,136.102429 L121.739632,136.102429 C129.210198,136.102429 135.266288,142.158519 135.266288,149.629085 C135.266288,149.737091 135.264994,149.845094 135.262407,149.953069 L135.262407,149.953069 L148.212407,165.593023 L148.212407,165.593023 C152.366181,154.855116 151.976942,142.890055 147.134052,132.444821 L145.15332,128.172742 L149.52299,122.191756 L149.52299,122.191756 C154.665337,115.153166 155.438602,105.829494 151.526036,98.0399302 L151.526036,98.0399302 C147.615637,90.254681 139.667507,85.3220923 130.955504,85.2739123 L81.4261619,85 L94.5091463,101.211805 L126.078621,101.211805 L126.078621,101.211805 C131.333956,101.211805 135.594246,105.472095 135.594246,110.72743 L135.594246,110.72743 C135.594246,115.982764 131.333956,120.243055 126.078621,120.243055 L90.7998445,120.243055 L90.7998445,109.8065 L74,89.7209302 L74,171.842801 L142.523221,172 L129.063904,156.116 L90.7998445,156.116 L90.7998445,136.102429 Z" id="path-2"></path>
        <filter x="-20.6%" y="-19.0%" width="141.3%" height="137.9%" filterUnits="objectBoundingBox" id="filter-3">
            <feMorphology radius="0.5" operator="dilate" in="SourceAlpha" result="shadowSpreadOuter1"></feMorphology>
            <feOffset dx="0" dy="0" in="shadowSpreadOuter1" result="shadowOffsetOuter1"></feOffset>
            <feGaussianBlur stdDeviation="5" in="shadowOffsetOuter1" result="shadowBlurOuter1"></feGaussianBlur>
            <feColorMatrix values="0 0 0 0 0.11372549   0 0 0 0 0.592156863   0 0 0 0 0.960784314  0 0 0 0.4 0" type="matrix" in="shadowBlurOuter1"></feColorMatrix>
        </filter>
    </defs>
    <g id="Page-1" stroke="none" stroke-width="1" fill="none" fill-rule="evenodd">
        <g id="BULDAR-HOME-DARK" transform="translate(-623.000000, -198.000000)">
            <g id="Group-13" transform="translate(623.000000, 198.000000)">
                <g id="Group-6" fill="url(#linearGradient-1)">
                    <path d="M109.5,0 L219,63.0666667 L219,194.933333 L115.263158,258 L0,194.933333 L0,63.0666667 L109.5,0 Z M18,73.5675676 L18,182.432432 L116.28125,234 L203,182.432432 L203,73.5675676 L110.5,22 L18,73.5675676 Z" id="Combined-Shape"></path>
                </g>
                <g id="Combined-Shape">
                    <use fill="black" fill-opacity="1" filter="url(#filter-3)" xlink:href="#path-2"></use>
                    <use fill="#FFFFFF" fill-rule="evenodd" xlink:href="#path-2"></use>
                </g>
            </g>
        </g>
    </g>
</svg>