<?xml version="1.0" encoding="UTF-8"?>
<svg width="82px" height="96px" viewBox="0 0 82 96" version="1.1" xmlns="http://www.w3.org/2000/svg" xmlns:xlink="http://www.w3.org/1999/xlink">
    <!-- Generator: Sketch 46.2 (44496) - http://www.bohemiancoding.com/sketch -->
    <title>Group 10</title>
    <desc>Created with Sketch.</desc>
    <defs>
        <linearGradient x1="125.619395%" y1="-25.1812726%" x2="50%" y2="100%" id="linearGradient-1">
            <stop stop-color="#FFE405" offset="0%"></stop>
            <stop stop-color="#F54D45" offset="100%"></stop>
        </linearGradient>
        <linearGradient x1="113.654654%" y1="-33.3244541%" x2="13.9996756%" y2="132.821657%" id="linearGradient-2">
            <stop stop-color="#FFE405" offset="0%"></stop>
            <stop stop-color="#F54D45" offset="100%"></stop>
        </linearGradient>
        <linearGradient x1="50%" y1="0%" x2="50%" y2="100%" id="linearGradient-3">
            <stop stop-color="#FFE405" offset="0%"></stop>
            <stop stop-color="#F54D45" offset="100%"></stop>
        </linearGradient>
    </defs>
    <g id="Assets" stroke="none" stroke-width="1" fill="none" fill-rule="evenodd">
        <g id="Group-10" transform="translate(1.000000, 1.000000)">
            <polygon id="Path-5" stroke="url(#linearGradient-1)" points="40 0 80 22.9777778 80 71.0222222 42.1052632 94 0 71.0222222 0 22.9777778"></polygon>
            <g id="Group-8" transform="translate(16.000000, 26.000000)">
                <path d="M23.7735849,36.12 C15.8019277,36.12 9.33962264,29.574403 9.33962264,21.5 C9.33962264,13.425597 15.8019277,6.88 23.7735849,6.88 C31.7452421,6.88 38.2075472,13.425597 38.2075472,21.5 C38.2075472,29.574403 31.7452421,36.12 23.7735849,36.12 Z M23.7735849,34.4 C30.8074001,34.4 36.509434,28.6244733 36.509434,21.5 C36.509434,14.3755267 30.8074001,8.6 23.7735849,8.6 C16.7397697,8.6 11.0377358,14.3755267 11.0377358,21.5 C11.0377358,28.6244733 16.7397697,34.4 23.7735849,34.4 Z" id="Combined-Shape" fill="url(#linearGradient-2)"></path>
                <path d="M23.7735849,30.96 C18.6154538,30.96 14.4339623,26.7246137 14.4339623,21.5 C14.4339623,16.2753863 18.6154538,12.04 23.7735849,12.04 C28.9317161,12.04 33.1132075,16.2753863 33.1132075,21.5 C33.1132075,26.7246137 28.9317161,30.96 23.7735849,30.96 Z M23.7735849,29.24 C27.993874,29.24 31.4150943,25.774684 31.4150943,21.5 C31.4150943,17.225316 27.993874,13.76 23.7735849,13.76 C19.5532958,13.76 16.1320755,17.225316 16.1320755,21.5 C16.1320755,25.774684 19.5532958,29.24 23.7735849,29.24 Z" id="Combined-Shape" fill="url(#linearGradient-2)"></path>
                <path d="M23.7735849,43 C12.0505596,43 2.54716981,33.3741221 2.54716981,21.5 C2.54716981,9.62587788 12.0505596,0 23.7735849,0 C35.4966103,0 45,9.62587788 45,21.5 C45,33.3741221 35.4966103,43 23.7735849,43 Z M23.7735849,40.42 C34.0898472,40.42 42.4528302,31.9492275 42.4528302,21.5 C42.4528302,11.0507725 34.0898472,2.58 23.7735849,2.58 C13.4573226,2.58 5.09433962,11.0507725 5.09433962,21.5 C5.09433962,31.9492275 13.4573226,40.42 23.7735849,40.42 Z" id="Combined-Shape" fill="url(#linearGradient-2)"></path>
                <ellipse id="Oval-2" fill="url(#linearGradient-3)" cx="42.0283019" cy="30.53" rx="2.97169811" ry="3.01"></ellipse>
                <ellipse id="Oval-2" fill="url(#linearGradient-3)" cx="3.82075472" cy="21.07" rx="3.82075472" ry="3.87"></ellipse>
                <ellipse id="Oval-2" fill="url(#linearGradient-3)" cx="25.4716981" cy="7.74" rx="2.54716981" ry="2.58"></ellipse>
            </g>
        </g>
    </g>
</svg>