<?xml version="1.0" encoding="UTF-8"?>
<svg width="82px" height="92px" viewBox="0 0 82 92" version="1.1" xmlns="http://www.w3.org/2000/svg" xmlns:xlink="http://www.w3.org/1999/xlink">
    <!-- Generator: Sketch 46.2 (44496) - http://www.bohemiancoding.com/sketch -->
    <title>Group 11</title>
    <desc>Created with Sketch.</desc>
    <defs>
        <linearGradient x1="100%" y1="17.8092165%" x2="50%" y2="100%" id="linearGradient-1">
            <stop stop-color="#40A8F7" offset="0%"></stop>
            <stop stop-color="#1E6FED" offset="100%"></stop>
        </linearGradient>
        <linearGradient x1="198.070414%" y1="-30.1341355%" x2="50%" y2="100%" id="linearGradient-2">
            <stop stop-color="#18A9FF" offset="0%"></stop>
            <stop stop-color="#0A70FD" offset="100%"></stop>
        </linearGradient>
    </defs>
    <g id="Assets" stroke="none" stroke-width="1" fill="none" fill-rule="evenodd">
        <g id="Group-11" transform="translate(1.000000, 1.000000)">
            <polygon id="Path-5" stroke="url(#linearGradient-1)" stroke-width="1.4" points="40 0 80 22 80 68 42.1052632 90 0 68 0 22"></polygon>
            <path d="M55.8240741,44.7831242 L55.8240741,51.646729 L49.3939815,44.7831776 L40.7185185,44.7831776 C37.8466378,44.7831776 35.5185185,42.4550583 35.5185185,39.5831776 L35.5185185,30.2 L35.5185185,30.2 C35.5185185,27.3281193 37.8466378,25 40.7185185,25 L55.8,25 C58.6718807,25 61,27.3281193 61,30.2 L61,39.5831776 C61,42.4470293 58.68488,44.7701558 55.8240741,44.783123 Z M22.7777778,62.523293 C20.1033602,62.3083923 18,60.0699226 18,57.3401869 L18,47.9570093 L18,47.9570093 C18,45.0851286 20.3281193,42.7570093 23.2,42.7570093 L23.2,42.7570093 L34.0563874,42.7570093 C34.5844561,45.0691817 36.6537187,46.7943925 39.1259259,46.7943925 L43.3510201,46.7943925 C43.4363912,47.1681937 43.4814815,47.5573358 43.4814815,47.9570093 L43.4814815,57.3401869 C43.4814815,60.2120676 41.1533622,62.5401869 38.2814815,62.5401869 L29.1481481,62.5401869 L22.7777778,69 L22.7777778,62.523293 Z M42.5,37 C43.3284271,37 44,36.3284271 44,35.5 C44,34.6715729 43.3284271,34 42.5,34 C41.6715729,34 41,34.6715729 41,35.5 C41,36.3284271 41.6715729,37 42.5,37 Z M47.5,37 C48.3284271,37 49,36.3284271 49,35.5 C49,34.6715729 48.3284271,34 47.5,34 C46.6715729,34 46,34.6715729 46,35.5 C46,36.3284271 46.6715729,37 47.5,37 Z M53.5,37 C54.3284271,37 55,36.3284271 55,35.5 C55,34.6715729 54.3284271,34 53.5,34 C52.6715729,34 52,34.6715729 52,35.5 C52,36.3284271 52.6715729,37 53.5,37 Z M25.5,54 C26.3284271,54 27,53.3284271 27,52.5 C27,51.6715729 26.3284271,51 25.5,51 C24.6715729,51 24,51.6715729 24,52.5 C24,53.3284271 24.6715729,54 25.5,54 Z M30.5,54 C31.3284271,54 32,53.3284271 32,52.5 C32,51.6715729 31.3284271,51 30.5,51 C29.6715729,51 29,51.6715729 29,52.5 C29,53.3284271 29.6715729,54 30.5,54 Z M36.5,54 C37.3284271,54 38,53.3284271 38,52.5 C38,51.6715729 37.3284271,51 36.5,51 C35.6715729,51 35,51.6715729 35,52.5 C35,53.3284271 35.6715729,54 36.5,54 Z" id="Combined-Shape" fill="url(#linearGradient-2)"></path>
        </g>
    </g>
</svg>